<?xml version="1.0" encoding="utf-8"?>
<!-- Generator: Adobe Illustrator 24.3.0, SVG Export Plug-In . SVG Version: 6.00 Build 0)  -->
<svg version="1.1" xmlns="http://www.w3.org/2000/svg" xmlns:xlink="http://www.w3.org/1999/xlink" x="0px" y="0px"
	 viewBox="0 0 1600 900" style="enable-background:new 0 0 1600 900;" xml:space="preserve">
<style type="text/css">
	.st0{fill:#EFDCE0;}
	.st1{stroke:#EFDCE0;stroke-width:2;stroke-miterlimit:10;}
	.st2{fill:none;stroke:#000000;stroke-width:3;stroke-miterlimit:10;}
	.st3{stroke:#000000;stroke-width:3;stroke-miterlimit:10;}
	.st4{stroke:#000000;stroke-width:2;stroke-miterlimit:10;}
	
		.st5{opacity:0.8;fill:#FFFFFF;stroke:#231F20;stroke-width:3;stroke-linecap:round;stroke-linejoin:round;stroke-miterlimit:10;enable-background:new    ;}
	.st6{opacity:0.96;fill:#FFFFFF;stroke:#000000;stroke-width:2;stroke-miterlimit:10;enable-background:new    ;}
	.st7{opacity:0.4;fill:#FFFFFF;stroke:#000000;stroke-width:2;stroke-miterlimit:10;enable-background:new    ;}
</style>
<g id="Layer_2">
	<rect x="1.6" class="st0" width="1600" height="900"/>
</g>
<g id="Layer_1">
	<g>
		<path class="st1" d="M610,393.3c0,3.4,0,6.8,0,10.2c-2.6,7.1-4.7,14.4-7.8,21.3c-2.1,4.7-4.6,10.8-8.6,12.9
			c-7.4,3.9-9.5,10-11.7,16.8c-1.1,3.4-2.5,6.8-4,10.1c-12.5,27.9-29.3,51.9-59.3,63.2c-8.4,3.2-17.4,4.9-26.1,7.3
			c-3.8,0-7.7,0-11.5,0c-1.2-0.4-2.4-0.9-3.6-1.1c-22.7-3.1-42-12.7-57.6-29.6c-15.2-16.5-24.6-36.4-31.7-57.4
			c-0.7-2-1.9-4.6-3.6-5.3c-7.9-3.4-12-9.7-14.8-17.4c-2.5-7-5-13.9-7.5-20.8c0-3.4,0-6.8,0-10.2c2.3-8.2,4.4-16.5,12.7-21.1
			c0.8-0.4,0.8-2.6,0.9-4c1.3-17.6,2.1-35.2,3.9-52.7c1.2-11,3.9-21.9,6-33.1c-2.8,0.3-5.3,0.6-9,1.1c5.3-4.6,9.7-8.3,14.5-12.4
			c-3.3-2.3-5.8-4-8.7-6c6-2.6,11.4-4.9,17.1-7.3c-1.7-2.6-3-4.6-4.3-6.6c7.1-3.8,14.7-6.6,20.7-11.3c24.2-19.1,51.5-28.3,82.2-27.8
			c3.9,0.1,7.9-1.1,11.6-2.2c5.1-1.6,9.9-3.7,15.6-5.9c-1.4,4.1-2.5,6.9-3.8,10.6c5.2-1.4,9.4-2.5,13.8-3.8
			c-0.4,2.9-0.8,5.1-1.2,7.9c5.8,0.4,11.2,0.8,17.2,1.2c-2.3,4.9-0.1,7.3,3.7,9.5c3.5,2,6.7,4.6,9.7,7.3
			c16.3,14.7,33.3,29,35.4,53.2c0.7,8.3,1.9,16.5,1.8,24.8c-0.3,18.9-1.2,37.8-1.9,56.7c0,1.2,0,2.5,0.5,3.6
			C603.8,381,606.9,387.1,610,393.3z M394.3,434.7c0.1,0.4,0.7,2.4,1.3,4.5c6,20.2,14.1,39.3,28,55.4c36.8,42.7,93,39.6,126.7-1.4
			c14.4-17.5,22.7-38.2,29.1-59.2c4.2-1.7,9.5-3.3,11.1-6.6c4.2-8.7,7.3-18,9.9-27.4c1-3.5-0.6-7.7-1.1-11.5c-0.5,0-1.1,0-1.6,0
			c-0.8,3.6-1.6,7.2-2.4,10.9c-2.2,9.5-3.1,10-11.2,8.7c-0.8-17.7-0.2-35.2-2.8-52.2c-2-12.8-2.8-25.2-1.7-38c0.1-1.3,0-2.6,0-3.2
			c-5.7,1.4-11,2.7-16.3,4.1c-0.3-0.5-0.5-1-0.8-1.5c6.6-4.9,11.9-10.6,11.6-19.7c-4.7,1.5-8.8,2.7-12.9,4c0-7.9,0-14.6,0-21.2
			c-0.5,0-1,0-1.6,0c-3.6,4.6-7.2,9.3-10.7,13.8c-2.3-7-4.3-13-6.7-20.4c-12,11.9-23.6,20.5-38.7,25.2c4.5-7.9,8.4-15,4.2-22.6
			c-9.9,6.6-19.5,13.1-29.2,19.6c-0.4-0.5-0.9-1.1-1.3-1.6c1.8-3,3.8-5.9,5.2-9.1c1.6-3.7,2.9-7.5,3.6-11.4c0.2-1.1-2.1-3.9-3.2-3.9
			c-5.9,0.1-12.4-0.5-17.6,1.6c-12.3,4.9-24.7,7.6-37.9,7c-6.1-0.3-11.2,1.9-14.6,7.4c-1.3,2.1-3.2,3.9-4.8,5.8
			c-0.4-0.3-0.8-0.6-1.2-0.9c0.9-3.5,1.8-6.9,2.7-10.4c-0.5-0.2-1-0.5-1.6-0.7c-2.4,4.1-5.8,7.9-6.9,12.4
			c-4.9,19.2-8.7,38.5-8.3,58.5c0.3,18.8,0.1,37.6,0.1,56.8c-12-2.7-10.9-0.2-12.7-11.6c-0.7-4.2-1.6-8.4-2.4-12.6
			c-0.6,0-1.2-0.1-1.8-0.1c-1.1,2.9-2.6,5.6-3.2,8.6c-3,14.3,4.2,26,10.5,37.7C384.4,431.8,389.3,432.4,394.3,434.7z"/>
		<path d="M489,491c-15.7,0.1-30-3.3-40.7-16c-1.6-1.9-2.9-4.2-4.1-6.4c-2.2-4-1.5-6.6,3.6-6.7c20.2-0.2,40.3-0.4,60.5-0.5
			c5.1,0,10.2,0.9,15.2,1.2c5.3,0.4,6.8,2.7,4.4,7.5c-6.2,12.4-17,17.9-30,20C495,490.7,492,490.8,489,491z M451.5,468.5
			c10.4,13.8,24.3,16.7,39.4,15.9c11.8-0.6,22.7-3.5,29.9-15.1C497.5,466.1,475,465.6,451.5,468.5z"/>
		<path d="M419.1,381.2c1.8-2.5,3.1-5.7,5.5-7.4c8.7-6.2,18.2-6.3,27.7-1.8c3.4,1.6,7,3.6,7,9.8c-3.2-2.5-5.5-4.2-6.9-5.3
			c-1.5,4.2-2.5,8.6-4.8,12.2c-1.2,1.8-4.9,2.6-7.4,2.6c-7.5-0.2-10.8-6.4-8.7-17.3c-2.5,1.5-4.4,2.4-6,3.8s-2.9,3.3-4.3,4.9
			C420.5,382.2,419.8,381.7,419.1,381.2z"/>
		<path d="M519.3,376.1c-2.3,1.8-4.4,3.4-7.4,5.7c1.9-9,12.1-14,22.8-12.7c10.3,1.3,16.5,6.3,16.1,13.6c-3.6-3.1-7-6-11.5-9.8
			c2,12.2-1,17.9-8.6,18.5C523.6,391.9,519.6,386.7,519.3,376.1z"/>
		<path d="M568.2,361c-13.5-13.5-28.2-14.9-44.1-10.5c-1,0.3-2.1,0.5-3.1,0.7c-3.9,0.8-7.7,0.4-8.5-4c-0.2-1.1,3.8-3.8,6.2-4.4
			c13.1-3.3,25.7-1.7,37.7,4.5C561.4,349.9,565.8,353.4,568.2,361z"/>
		<path d="M403.8,359.5c5.1-3.4,9.9-7.8,15.4-10.1c12.4-5.2,25.3-4.6,37.9,0.1c1.7,0.6,2.8,2.9,4.2,4.5c-2.1,1.2-4,3.2-6.2,3.4
			c-2.3,0.2-4.9-1-7.3-1.8c-15.2-5.5-29.5-4.7-42.4,6.3C404.8,361,404.3,360.3,403.8,359.5z"/>
		<path d="M486,441.9c-7.7-0.1-16.1-5.7-18.2-12.6c-0.4-1.5,0.4-3.3,0.7-5c1.2,1,3,1.6,3.6,2.9c3.2,6.3,8.7,10.1,15.1,9.6
			c6.9-0.5,11.3-4,12.9-11c0.3-1.1,2.1-1.9,3.2-2.8c0.6,1.4,1.7,2.9,1.6,4.2C503.9,435.5,495.5,442,486,441.9z"/>
	</g>
	<path class="st2" d="M428.7,509.6c1.1,9.9-1,51.1-7.2,66.2c-17.6,42.8-66.1,42.2-75.8,45.4"/>
	<g id="Layer_1_1_">
	</g>
	<g>
		<path class="st3" d="M700.6,469.1c2.8-2.3,5.7-4.7,9.6-7.9c0-15.4-0.5-32.5,0.1-49.5c0.7-17.7,4.6-35,13-50.8
			c12-22.6,31.6-35.2,55.8-40.6c26.9-6,54.1-6.2,81.1,0.1c37.3,8.8,62.1,36.9,67.6,78.4c2.6,19.2,1.7,38.8,2.4,58.2
			c0.1,1.8,0,3.7,0,5.3c15.8,6.4,21.2,27.3,12,44.7c0.5-7.8,2-15.9,1.4-23.9c-0.9-11.8-5-16.2-13.4-16.8c-0.4,2.8-0.8,5.7-1.2,8.6
			c-0.4,2.8-0.9,5.6-2.7,8.3c0.6-8.7,1.3-17.3,2-26.5c-2.2-0.4-4.2-0.8-5.1-0.9c1.9-2.6,4.2-5.7,6.4-8.7c-0.6-0.7-1.3-1.4-1.9-2.1
			c-4.7,1.3-9.3,2.5-15.2,4.1c5.4-6.5,19.9-2.5,15.4-17.4c-6.2,2.6-12.3,5.1-18.4,7.6c-0.2-0.5-0.5-1-0.7-1.5
			c3.4-1.6,6.8-3.3,10.2-4.9c11-5.1,11-5.1,8.3-18.1c-7.1,4.5-14.1,9-21,13.4c-0.3-0.5-0.6-1-1-1.6c3.9-2.6,7.9-5.2,11.7-7.9
			c12.2-8.4,12.4-9,7-25.4c-4,5.2-7.5,9.8-11,14.4c-1.1-0.6-2.3-1.3-3.4-1.9c12-9.4,18.8-19.7,8.1-33c-7.9,10.7-15.8,21.4-23.7,32.1
			c-0.7-0.5-1.4-1-2.1-1.6c3.6-4.4,7.3-8.6,10.7-13.1c2.5-3.2,4.8-6.5,6.9-9.9c8.2-13.4,7.9-15.5-2.7-27.4
			c-7.3,13.9-14.8,27.9-22.2,42c-0.9-0.5-1.8-1-2.7-1.5c2.5-3.9,5.2-7.6,7.4-11.6c4-7.5,8.4-14.9,11.4-22.8
			c4.5-11.6,2.9-14.2-7.7-20c-6.5,15.9-13.1,32-19.7,48c-1-0.5-2-0.9-3.1-1.4c1.3-2.4,2.8-4.8,3.8-7.3c4.5-10.8,9.6-21.4,13.1-32.5
			c3.5-10.8,1.8-12.7-8.7-15.9c-6,17.4-11.9,34.8-17.9,52.2c-1-0.3-1.9-0.7-2.9-1c2.3-5.3,4.8-10.4,6.7-15.8
			c3.2-9,6.3-18.1,8.7-27.4c2.7-10.7,1.4-12-9.2-13.6c-5.3,18.1-10.5,36.1-15.7,54.1c-0.9-0.3-1.8-0.6-2.7-0.8
			c2.2-6.2,4.7-12.4,6.5-18.7c2.6-8.7,5.1-17.4,7-26.3c2.2-10.5,1.3-11.2-9.3-11.5c-4.6,18.6-9.1,37.1-13.7,55.6
			c-0.6-0.1-1.3-0.3-1.9-0.4c4.4-18.4,8.7-36.7,13.3-56c-5.9-0.9-10.3-1.5-15.3-2.3c-2.6,19.5-5,38.3-7.5,57.1
			c-0.6-0.1-1.3-0.2-1.9-0.3c2.3-18.4,4.6-36.9,7-56.2c-6.6,0-12,0-18.9,0c2.3,18.8,4.5,37.1,6.7,55.5c-0.6,0.1-1.2,0.2-1.8,0.2
			c-2-15-4.2-29.9-5.8-44.9c-1.4-13-1-13-16.5-8.6c4.3,18.3,8.6,36.8,12.9,55.3c-0.6,0.1-1.2,0.3-1.8,0.4
			c-4.6-18.6-9.2-37.3-13.9-56.5c-2.7,0.5-5.8,1-9.7,1.7c0,19.9,8.2,37.6,14.2,55.8c-0.9,0.3-1.8,0.5-2.7,0.8
			c-5.2-18.2-10.5-36.3-15.8-54.6c-10.8,1-12.1,2-9.2,12.9c3.3,12.3,7.9,24.3,12,36.4c0.8,2.4,2,4.7,3,7c-0.6,0.3-1.3,0.6-1.9,0.8
			c-3.6-8.6-7.7-17-10.6-25.8c-2.9-8.7-4.7-17.9-7-26.8c-11.9,3.6-13.4,5-9.9,16c4.3,13.9,10.1,27.2,15.6,41.6
			c-10.2-15.5-16.9-31.8-19.6-49.8c-12.6,6.9-14.3,9.3-9.6,21c4.8,12.3,11.5,23.8,18.2,37.3c-11.2-14.1-18.9-28.1-22.6-44.6
			c-17.2,12-8.1,24.5,0,36.9c-0.8,0.2-1.5,0.3-2.3,0.5c-3.3-5.6-6.6-11.2-9.9-16.8c-8.6,12.2-8.3,18,1.2,28.4c2.5,2.7,5.3,5.3,8,7.8
			c2.6,2.4,5.2,4.8,7.8,7.2c-0.7,0.7-1.4,1.5-2.2,2.2c-6.6-7.9-13.1-15.7-20.1-24.1c-7,12.8-6,18.2,3.2,24.7
			c4.6,3.2,9.2,6.3,13.9,9.4c-0.3,0.6-0.7,1.2-1,1.8c-6.7-4.4-13.4-8.9-21.2-14c0.2,6.6-4,12.6,3.6,16.3c5,2.5,10,4.8,14.4,8.8
			c-5.8-2.5-11.6-5-17.6-7.6c-4.8,14.8,9,11.4,14,17.2c-2.2-0.6-4.4-1.3-6.6-1.9c-2.3-0.6-4.6-1.2-6.9-1.8c-0.7,0.5-1.4,1-2.1,1.5
			c1.8,3.1,3.6,6.2,5.4,9.4c-0.1,0-1.8,0.3-4.2,0.7c0.8,10.9,1.6,21.7,2.4,32.5c-0.3,0-0.6,0.1-0.9,0.1c-1.2-7.7-2.5-15.4-3.9-24.2
			C706.2,466.7,703.4,467.9,700.6,469.1L700.6,469.1z"/>
		<path class="st3" d="M743.7,699.9c15.9-30.3,14.5-63.3,13.8-95.9c-0.1-3.9-3.6-7.8-5.6-11.6c-2.7-5.5-10.8-8.4-8.3-16.5h-0.1
			c2.8,4.4,5.2,9.3,8.6,13.1c8,9,16,18,24.8,26.1c25.6,23.5,55.6,24.5,82.4,2.3c10.2-8.4,19-18.6,28.4-28c1.8-1.8,3.4-3.6,5.9-6.3
			c-0.2,1.9,0,2.6-0.3,2.8c-11.1,8.7-11.2,20.8-10.4,33.3c1.2,17,1.3,34.1,3.7,50.9c2.7,18.7,11.6,34.7,26.1,47.4
			c1.1,1,1.8,2.4,2.7,3.7l0.2-0.2c-7.1-7.6-15.6-14.4-21-23c-11.5-18.2-13.3-39.2-13.9-60.1c-0.3-11.4-0.1-22.8-0.1-36.8
			c-40.4,43.4-80,47.8-120.8-0.1c0,14.5,1,26.3-0.2,37.8c-1.8,16.3-4.9,32.6-8.3,48.7c-1,4.7-4.7,8.7-7.1,13.1
			C744.1,700.3,743.7,699.9,743.7,699.9z"/>
		<path class="st4" d="M902.4,492.3c-7.1-2.4-14.2-4.7-19.6-6.5c-2.1,4.8-3.2,9.6-6,12.9c-1.3,1.5-7.3,1.5-8.6,0
			c-2.7-3.2-3.7-7.9-6-13.2c-3.5,2.5-8.1,5.8-12.3,8.8c3.1-8.2,11.5-13.6,23.9-12.2c9.8,1.1,19.3,4.9,28.9,7.5
			C902.7,490.5,902.6,491.4,902.4,492.3z"/>
		<path class="st3" d="M744.1,700.3c-8.2,16.4-22.1,26.9-38.5,32.9c-22,7.9-44.8,13.7-67.2,20.4c-0.6,0.2-1.3-0.2-4.5-0.7
			c18-5.2,33.7-9.9,49.4-14.4c17.6-5,34.7-10.9,47.9-24.3c4.4-4.5,8.3-9.5,12.5-14.3L744.1,700.3z"/>
		<path class="st3" d="M915.5,721.1c27.4,16.5,59.1,21.3,88.5,32.9c-3-0.8-6.1-1.5-9.1-2.4c-18.1-5.3-36.5-10-54.2-16.3
			c-8.9-3.2-16.7-9.4-25-14.3C915.6,720.9,915.5,721.1,915.5,721.1z"/>
		<path class="st4" d="M843.8,477.9c13.2-18.5,39.2-23.2,64.1-11.2c-7.2-1.4-14.4-3.6-21.7-3.9c-7.5-0.2-15.6,0.2-22.6,2.7
			C856.7,468,850.7,473.4,843.8,477.9z"/>
		<path class="st4" d="M732.7,466.8c24.5-12,52.8-7.5,63.3,11.6C777.9,457.9,755.7,460.3,732.7,466.8z"/>
		<path class="st4" d="M801.7,594.2c-4.6-4.7-9.3-9.4-15.6-15.7c9.5-1.4,16-2.4,22.6-3.4c0.1,0.6,0.2,1.1,0.3,1.7
			c-4.3,0.8-8.7,1.5-13,2.3c-0.1,0.9-0.2,1.7-0.3,2.6c8.4,2.3,16.8,4.5,25.2,6.8c-0.1,0.5-0.2,1-0.3,1.6c-8.4-1.9-16.9-3.8-26.3-5.9
			c2.7,3.7,5,7,7.4,10.2C801.6,594.3,801.7,594.2,801.7,594.2z"/>
		<path class="st4" d="M840.2,592.7c1.9-2.8,3.8-5.6,6.3-9.3c-6.8,2.2-12.8,4-18.7,5.9c-0.2-0.6-0.4-1.1-0.6-1.7
			c6.3-2.3,12.6-4.5,18.9-6.8c-0.1-0.7-0.2-1.4-0.3-2.1c-7,0-14.1,0-21.8,0c9.3-6.9,18.6-1.2,27.5-1.6c0.5,0.6,1,1.2,1.5,1.9
			c-4.3,4.5-8.6,9-12.9,13.5C840.1,592.6,840.2,592.7,840.2,592.7z"/>
		<path class="st3" d="M700.6,469.1c-9,21.9-2.4,41.4,10.9,61.4c-15.1-12.4-21.7-43.7-13.6-58.9
			C698.4,470.6,699.7,469.9,700.6,469.1L700.6,469.1z"/>
		<path class="st3" d="M898.4,577c6.4-14.4,12.9-28.9,19.3-43.3C914.7,549.6,907.7,563.9,898.4,577z"/>
		<path class="st3" d="M743.6,575.8c-2-1.3-5-2.1-5.9-4c-5.4-11.2-10.4-22.6-15.4-34c-0.4-0.9,0.4-2.3,0.4-2.2
			C729.4,548.6,736.5,562.2,743.6,575.8L743.6,575.8z"/>
		<path class="st4" d="M840.1,592.6c-9.1,11.1-28.6,12-38.4,1.6l-0.1,0.2c5.2,1.6,10.6,4.8,15.6,4.4c7.8-0.7,15.4-3.9,23.1-6
			C840.2,592.7,840.1,592.6,840.1,592.6z"/>
		<path class="st4" d="M738,489.6c9.6-2.6,19.1-6.4,28.9-7.5c12.4-1.4,20.8,4,23.9,12.2c-4.2-3-8.8-6.3-12.3-8.8
			c-2.3,5.3-3.3,10-6,13.2c-1.3,1.5-7.3,1.5-8.6,0c-2.8-3.3-3.9-8.1-6-12.9c-5.4,1.8-12.5,4.1-19.6,6.5
			C738.1,491.4,738,490.5,738,489.6z"/>
	</g>
	<path class="st5" d="M746.1,382.8c16.2,2.8,36.2,4.8,55.4,9.9c30.1,8,46.5,30,47.2,61.2c1.1,51-8.6,99.5-43.3,138.6
		c-44.6,50.1-75.2,51.9-120.9,4c-39.9-41.7-50.7-95.4-45.7-151.4c2.9-32.3,22.6-48.6,60.9-56.5C713.6,385.8,728,385.1,746.1,382.8z"
		/>
	<g>
		<path d="M1286.2,627.5c-24.1,10.2-58.8-7.4-71.7-34.6c-10.3-21.9-10.5-45.1-8.7-68.5c0.2-2.7,0.6-5.5,1.3-11.5
			c-39.2,35.6-77.7,38-117.9,1.4c0,17.8,0.9,32.9-0.2,47.8c-3,41.2-29.7,67-70.9,69.3c-2.9,0.2-5.8-0.5-8.9-2.9
			c2-0.6,3.9-1.6,5.9-1.7c44.4-3.2,68.5-27.6,70.3-72.7c0.5-13.6-1-27.3-2-40.9c-0.2-2.6-1.7-5.2-3-7.6c-8.7-15.7-17.3-31.5-26.4-47
			c-1.5-2.6-4.8-4.9-7.7-6c-23.1-8.5-35.4-33-28.9-56.9c1.1-3.9,0.1-8.6-0.8-12.8c-9.7-45.7-9.7-90.2,15.8-131.6
			c27.9-45.1,88.4-73.2,135.5-61.1c52.2,13.4,92.8,40.3,103.4,98.1c5.7,30.9,3.9,61.6-2.5,92.2c-0.6,2.9-1.1,6.6,0,9.1
			c11.8,24.7,5,48.8-18.6,60.2c-7,3.4-9.9,7.9-12.7,14.3c-4.7,10.6-9.9,21.2-16.2,30.8c-19,28.7-15.8,84.8,6.9,110.7
			c13.2,15,30.4,20.1,49.5,21.2C1280.8,626.8,1283.5,627.2,1286.2,627.5z M1249.9,388.3c2.3-36.8-19.4-74.8-42.1-86.1
			c-2.8-1.4-5.9-3-9-3.2c-20.7-1.1-38.8-8.7-55.8-20.2c-3.5-2.4-10.2-3.2-14.1-1.6c-25.1,10.4-47.5,25.1-65.4,46
			c-13.7,16-24.2,33.6-20.2,55.7c4.9,26.8,9.3,53.8,16.8,79.9c7.3,25.6,23.1,46.6,45.2,62.3c28,19.9,53.1,20.9,81.1,1.1
			c11-7.7,21.2-17.5,29.2-28.3C1241.4,459.3,1247,418.2,1249.9,388.3z M1033.5,385.1c1.6-22.3,1.1-43.4,4.9-63.7
			c8.2-44.6,33.4-74.8,79.4-84.7c3.1-0.7,6.8-1,9-2.9c14.9-12.8,29.4-26,43.2-38.3c-37-11.6-88.2,4.9-120.4,41.5
			c-38.7,43.9-39.3,94.9-27.1,148.7C1027.3,385.5,1030.8,385.3,1033.5,385.1z M1135.8,230.8c0.4,0.9,0.8,1.8,1.2,2.6
			c5.5,0,11.1-0.3,16.6,0c42,2.6,76.2,19.1,91.9,60c7.8,20.5,9.4,43.5,12.9,65.5c1.3,8.3,0.2,16.9,0.2,28.7c3.2-3.9,4.2-4.6,4.5-5.6
			c0.8-2.2,1.7-4.6,1.9-6.9c1.6-23.5,5.7-47.3,3.9-70.5c-3.3-42.4-22.6-75.7-62.6-95.8c-20.1-10.1-36.7-7.8-53.1,5.7
			C1147.1,219.6,1141.6,225.3,1135.8,230.8z M1049.9,448.8c-3.3-17.3-5.7-32.6-9.3-47.6c-0.9-3.9-5.3-9.4-8.5-9.7
			c-3.3-0.3-8.6,4.2-10.3,7.8c-2.2,4.8-3.4,11.3-1.8,16.1C1024.6,429.9,1033.3,441.6,1049.9,448.8z M1244.9,448.4
			c14.9-10.3,25-21.1,26.9-37.1c0.6-5.3-2.6-11.5-5.2-16.6c-1.1-2.1-5.4-3.6-8.1-3.4c-1.8,0.2-4.3,3.7-4.7,6
			C1250.8,413.3,1248.2,429.4,1244.9,448.4z"/>
		<path d="M1227.1,391.9c-5.1-2.7-8.8-4.6-12.4-6.6c-6.8,13.1-18.3,14.3-26.8,2.7c-2.4,1.6-4.9,3.2-7.5,4.9
			c-0.5-1.5-1.1-2.5-0.9-2.7c6.4-4.9,12.2-11.8,19.5-14.1C1208.9,373,1220.6,380.4,1227.1,391.9z"/>
		<path d="M1116.1,392.9c-2.6-1.8-5.3-3.5-7.9-5.3c0.1,1.1,0.3,2.1,0.4,3.2c-5.3,1.5-10.6,4.5-15.7,4c-4.1-0.4-7.9-4.9-13.1-8.5
			c-1.4,0.7-5,2.5-8.7,4.4c5.7-10.3,14.3-15.7,25.5-15C1106.7,376.4,1113.6,382.1,1116.1,392.9z"/>
		<path d="M1121.7,478.5c18.6,9.9,34.6,10.1,50.1-1.7c-4,14.1-11.6,22-21.4,22.9C1138.2,500.9,1129.9,495.3,1121.7,478.5z"/>
		<path d="M1183.5,466.7c-3.4,2.3-6.5,6.2-9.7,6.3c-19.7,0.4-39.5,0-59.2-0.5c-1.1,0-2.1-3.3-3.6-5.8
			C1135.6,466.7,1158.9,466.7,1183.5,466.7z"/>
		<path d="M1122.4,368c-9.8-4-19.2-9.9-29.4-11.3c-9.6-1.4-19.9,1.9-29.1,3.1C1079.1,345,1109.2,347.9,1122.4,368z"/>
		<path d="M1233.1,361.6c-21.6-12.9-40.4-3.5-60.1,8.4C1181,349.2,1217.3,344.7,1233.1,361.6z"/>
	</g>
	<path class="st6" d="M1066.8,293.5c15.9,2.7,35.4,4.7,54.2,9.7c29.4,7.9,45.5,29.4,46.2,59.9c1.1,49.8-8.4,97.3-42.4,135.5
		c-43.6,49-73.5,50.8-118.2,3.9c-39-40.8-49.6-93.2-44.7-148c2.8-31.5,22.1-47.5,59.5-55.2C1035,296.4,1049.1,295.6,1066.8,293.5z"
		/>
	<path class="st7" d="M412,293.5c15.9,2.7,35.4,4.7,54.2,9.7c29.4,7.9,45.5,29.4,46.2,59.9c1.1,49.8-8.4,97.3-42.4,135.5
		c-43.6,49-73.5,50.8-118.2,3.9c-39-40.8-49.6-93.2-44.7-148c2.8-31.5,22.1-47.5,59.5-55.2C380.3,296.4,394.3,295.6,412,293.5z"/>
	<path class="st2" d="M548.1,504.1c-1.3,10.4-3.9,58.3,3.2,74.2c20.2,44.8,80,39.5,91.2,42.9"/>
</g>
</svg>
