<?xml version="1.0" encoding="utf-8"?>
<!-- Generator: Adobe Illustrator 24.3.0, SVG Export Plug-In . SVG Version: 6.00 Build 0)  -->
<svg version="1.1" xmlns="http://www.w3.org/2000/svg" xmlns:xlink="http://www.w3.org/1999/xlink" x="0px" y="0px"
	 viewBox="0 0 1600 900" style="enable-background:new 0 0 1600 900;" xml:space="preserve">
<style type="text/css">
	.st0{fill:#231F20;stroke:#FFFFFF;stroke-width:10;stroke-miterlimit:10;}
</style>
<g id="Layer_1">
</g>
<g id="Layer_2">
	<path class="st0" d="M400.3,399.8c30-27.1,57.7-35.5,57.7-35.5c38.4-11.7,73.1-15,94.8-15.5c48.3-1,88.1,5.3,115.1,11.1
		c30.4,6.5,43.2,11.9,142.6,48.4c62.2,22.8,93.3,34.2,105.8,38.3c0,0,79.2,27,165.6,40.3c21.8,3.4,32.1,3.2,41.2,1.5
		c5-1,11.7-3.8,19.8-1.7c5.2,1.4,7.4,3.4,8.7,4.6c11.2,10.9,9.5,30,8.3,43.4c-1.2,13.3-2,23-9.1,33.1c-1.4,1.9-7.9,11-23.1,17.9
		c-18.3,8.3-35.7,7.4-54.6,5.4c-55.8-6-84.2-15.3-84.2-15.3c-38.4-11.1-68.8-19.9-117.7-39.1c-56.1-22-58.4-26.9-109.7-45.5
		c-7.7-2.8-39.7-14.3-82.9-26.4c-52.5-14.7-81.3-19.1-98.2-21.2c-27.2-3.3-43.4-3.1-58.6-1.4c-22.8,2.6-37.3,7-45.9,10.5
		c-14.8,6-22.2,9-27.5,15.4c-2.7,3.2-4.7,6.8-8.4,7c-4.7,0.4-7.9-5-14.3-13.4c-11.8-15.2-14.9-15-25.9-31c-6.2-9-7.9-13.1-7.4-17.8
		C393.2,406.5,397.8,402,400.3,399.8z"/>
	<path class="st0" d="M905.8,382.8c-1.3,0.2-5,0.9-7.5,1.5c-15.7,3.3-26.7,8.9-30.3,10.7c-15.4,7.6-31.9,12.8-47.8,19.3
		C789.8,426.7,780,431.1,760,439c-14.1,5.5-33.8,13.3-58.6,21.5c-22,7.3-53.3,17.5-95.1,25.4c-36.9,6.9-61.9,8.2-67.9,8.5
		c-2.5,0.1-26.4,1.1-56.7-2.2c-13.1-1.4-23.1-3.2-34.5-7.9c-6.8-2.8-15-6.3-23.4-13.7c-6.1-5.4-10.6-12.3-19.4-25.7
		c-5.1-7.8-11.6-19.9-14.2-24.4c-0.2,3.6-0.4,8.9-0.2,15.4c0.7,21,4.7,25.8,7.6,48.6c2.5,19.2,0.6,24.1,5.3,37.6
		c1.6,4.6,3.6,10.4,8,16.6c6.7,9.6,15.6,15.6,28.2,21.7c27,13,50.9,17,52.2,17.2c42,6.7,77.1,0.4,96.7-3.2
		c55.3-10.3,93.1-31.2,101-35.6c17.7-10,32.5-21.6,62-44.8c29.9-23.5,42.2-36,73.1-58.2c18.3-13.1,36.2-24.4,39.3-26.4
		c16.6-10.6,22.8-12.8,34.4-20.9C899.5,387.4,902.3,385.4,905.8,382.8z"/>
	<path class="st0" d="M1162.6,535.6c6.6-15.8,13.6-36.9,17.2-45.9c8.5-21.4,13.1-28,15.5-42.8c0.9-5.8,2.6-19.2-0.5-35.3
		c-5.2-27.1-20.4-44.7-29.2-54.7c-3.8-4.3-19.9-21.9-47.4-34.8c-27.8-13.1-53.7-15-70-14.5c-28.4,0.8-49.2,9.2-63.5,15.1
		c-13.9,5.8-28.6,14.8-57.4,32.6c-16.4,10.2-31.3,19.8-40.3,25.7c7-1.3,17-3.2,29.1-5.2c22.2-3.7,33.3-5.6,42.2-6.1
		c23.6-1.4,41.8,3.3,54.9,6.7c10.4,2.7,33.2,9.5,58.9,25.2c21,12.9,37.2,30.8,69.5,66.8c7.2,8,17.9,20.2,20.4,34.6
		c2.1,12.1,1.2,26.2,1.2,26.2C1163,531.8,1162.7,534,1162.6,535.6z"/>
</g>
</svg>
