<?xml version="1.0" encoding="utf-8"?>
<!-- Generator: Adobe Illustrator 25.0.1, SVG Export Plug-In . SVG Version: 6.00 Build 0)  -->
<svg version="1.1" id="Layer_1" xmlns="http://www.w3.org/2000/svg" xmlns:xlink="http://www.w3.org/1999/xlink" x="0px" y="0px"
	 viewBox="0 0 1600 900" style="enable-background:new 0 0 1600 900;" xml:space="preserve">
<style type="text/css">
	.st0{display:none;}
</style>
<g id="Layer_1_1_" class="st0">
	
		<image style="display:inline;overflow:visible;enable-background:new    ;" width="3840" height="2160" xlink:href="row1.jpg"  transform="matrix(0.4466 0 0 0.4466 -57.4184 -32.2979)">
	</image>
</g>
<g>
	<path d="M961.8,600.4c-2.9-0.3-3.6-2.8-4.8-4.6c-13.3-19.5-26.5-39.1-40-58.6c-3.1-4.5-4.4-9.1-4.4-14.5
		c0.2-29.7,0.1-59.4,0.1-89.1c-0.1-36.3-28-64.2-64.1-64.2c-36,0-64.1,27.9-64.3,64.1c-0.2,29.7-0.2,59.4,0.1,89.1
		c0.1,6.2-2.1,10-7.3,13.3c-39.2,24.2-78.3,48.7-117.4,73.1c-1.7,1.1-3.4,2.2-5.3,2.8c-12.5,4.3-17.7,0.6-17.8-12.4
		c0-50.7-0.2-101.5,0-152.2c0.2-84.9,66.8-154.5,151.6-160.3c84.6-5.8,155.2,50.4,171.4,128.5c2.9,13.9,3.6,28,3.7,42.1
		c0.3,44.7,0.2,89.4,0.1,134C963.3,594.5,964.5,597.8,961.8,600.4z"/>
	<path d="M717.4,610.8c1.9-4.3,6.1-6,9.4-8.6c22.1-17.2,44.3-34.2,66.3-51.4c4.5-3.5,9.2-5.4,15-5.4c26.8,0.2,53.6,0.2,80.4,0
		c6.6-0.1,10.5,2.2,13.7,8.1c8.7,15.9,18,31.5,27.1,47.2c6.7,11.7,6.5,12.1-7.4,12.1c-26.5,0-53,0-79.6,0c-38.3,0-76.7,0-115-0.1
		C724,612.8,720.4,614,717.4,610.8z"/>
</g>
</svg>
