<?xml version="1.0" encoding="utf-8"?>
<!-- Generator: Adobe Illustrator 24.3.0, SVG Export Plug-In . SVG Version: 6.00 Build 0)  -->
<svg version="1.1" id="Layer_1" xmlns="http://www.w3.org/2000/svg" xmlns:xlink="http://www.w3.org/1999/xlink" x="0px" y="0px"
	 viewBox="0 0 1600 900" style="enable-background:new 0 0 1600 900;" xml:space="preserve">
<style type="text/css">
	.st0{fill:#231F20;stroke:#231F20;stroke-width:16;stroke-miterlimit:10;}
	.st1{fill:#FFFFFF;}
	.st2{fill:none;stroke:#FFFFFF;stroke-width:10;stroke-miterlimit:10;}
</style>
<g id="Layer_1_1_">
</g>
<g>
	<path class="st0" d="M1042.7,582.9c0,24.5,0,48.1,0,73.1c-2.5-2.3-4-3.6-5.5-5c-21.3-21.2-42.6-42.4-63.7-63.8c-3-3-6-4.3-10.3-4.3
		c-46.7,0.1-173.7,0.1-220.4,0.1c-2.5,0-5,0-8,0c0-17.8,0-46.4,0-64c-13.2,0-92.4-0.1-105.1,0.2c-1.7,0-3.6,2.1-5.1,3.6
		c-18.5,18.4-37,36.9-55.4,55.4c-1.5,1.5-4.2,4.3-5.7,5.8c0-1.1,0,0.1,0-1.9c0-20.8,0-41.7,0-63c-11.9,0-23,0-34.6,0
		c0-99.3,0-198.2,0-297.5c107.6,0,281.6,0,389.8,0c0,40.5,0,80.9,0,122.1c32.3,0,136.4,0,168.4,0c0,76.2,0,163.1,0,239.3
		C1069.9,582.9,1060.5,582.9,1042.7,582.9z M580.9,541.6c13.1-13.1,24.9-24.8,36.6-36.7c2.7-2.8,5.5-3.8,9.3-3.8
		c13.7,0.2,93.9,0.1,108.3,0.1c0-52.7,0-104.8,0-157.5c71.2,0,126.1,0,165.7,0c0-14.9,0-29.1,0-43.9c-2.3,0-4.2,0-6.1,0
		c-31.2,0-62.5,0.1-93.7-0.1c-4.2,0-6.5,0.9-8.7,4.9c-5.9,10.5-18,15-29.4,11.7c-11.6-3.4-18.9-13.1-18.9-25.4
		c0-11.9,8-22.2,19.3-25.2c11.4-3,23.3,1.8,29.2,12.4c1.9,3.5,4.1,4.5,7.8,4.5c31.6-0.1,63.3-0.1,94.9-0.1c1.9,0,3.7-0.3,5.4-0.4
		c0-14.8,0-29,0-43.1c-96.3,0-258.5,0-354.2,0c0,23.5,0,46.5,0,70.2c26.3,0,92.3,0,118.3,0c0,26.9,0,53.2,0,79.5
		c1.2,0.7,2.3,1.2,3.3,1.8c11.1,6.1,16.5,17.6,13.6,29.2c-2.9,11.9-13.1,20.1-25,20.3c-11.9,0.2-22.4-7.6-25.7-18.7
		c-3.4-11.8,1.4-23.9,12.6-30.1c3.1-1.8,3.8-3.7,3.8-6.9c-0.1-17.5,0-35-0.1-52.5c0-1.7-0.2-3.4-0.4-5.5c-18.4,0-76.3,0.2-94.2-0.1
		c-5.3-0.1-6.9,1.3-6.9,6.8c0.2,54,0.1,108.1,0.1,162.1c0,1.9,0.2,3.8,0.3,6.3c11.7,0,23,0,34.7,0
		C580.9,514.5,580.9,527.2,580.9,541.6z M752.7,422.8c0,43.6,0,98.5,0,142.5c2.8,0,5.3,0,7.8,0c43.2,0,166.6,0.1,209.8-0.1
		c4.3,0,7.3,1.3,10.3,4.3c13,13.3,26.3,26.5,39.5,39.7c1.3,1.3,2.7,2.5,5.3,4.7c0-17,0-32.6,0-48.8c17.8,0,27,0,44,0
		c0-11.9,0-34.7,0-46.2c-16.4,0-189.2,0.1-205.1-0.1c-3.8,0-5.9,0.9-7.8,4.4c-5.1,9.2-15.6,14.3-25.2,13
		c-12.5-1.8-22.1-11.4-23.2-23.1c-1.2-12.7,6.2-24.2,17.9-28c12.1-3.9,24.7,1,31.1,12.7c1.7,3,3.5,3.6,6.4,3.6
		c14.9-0.1,186.7,0,201.7-0.1c1.5,0,3-0.3,4.2-0.4c0-46.7,0-93,0-139.2c-37.9,0-112.9,0-150.5,0c0,17.5,0,34.5,0,52.2
		c9.5,0,10.6-0.3,19.7,0.1c5.4,0.3,8.7-1.1,11.7-6.1c5.7-9.7,17.5-13.5,28.3-10.5c11.2,3.1,19,13.1,19.4,24.6
		c0.4,10.4-6.6,20.8-16.6,24.9c-10.2,4.2-23.4,1.9-29.1-7.5c-4.7-7.8-10.5-8.2-17.9-8c-10.4,0.3-12.7,0.1-23.1,0.1
		c-3.3,0-6.5,0-10.6,0c0-23.8,0-46.8,0-70c-38.3,0-110.5,0-148,0C752.7,376,752.7,408,752.7,422.8 M971.3,413.9
		c-4.7,0.1-8.5,4.2-8.4,8.8c0.1,4.6,4.1,8.5,8.7,8.5c4.9,0,8.9-4.3,8.7-9.1C980.1,417.3,976.1,413.7,971.3,413.9z M842.9,509.9
		c-0.1-4.7-4-8.6-8.6-8.6c-4.9,0-8.8,4.2-8.6,9.2c0.2,4.6,4.3,8.4,8.9,8.2C839.3,518.5,843,514.6,842.9,509.9z M664.7,414
		c0.1-4.8-3.4-8.6-8.2-8.9c-4.9-0.3-9.2,3.8-9.2,8.6c0,4.6,4,8.6,8.6,8.6C660.7,422.4,664.6,418.7,664.7,414z M778.5,291.1
		c0-4.9-3.5-8.5-8.4-8.5c-4.8,0-8.6,3.7-8.7,8.3c-0.1,5,3.8,8.9,8.8,8.8C775,299.7,778.5,296,778.5,291.1z"/>
</g>
<circle class="st1" cx="769.9" cy="291.2" r="8.3"/>
<circle class="st1" cx="655.7" cy="414" r="8.3"/>
<circle class="st1" cx="971.7" cy="422.5" r="8.3"/>
<circle class="st1" cx="834.3" cy="510" r="8.3"/>
<polyline class="st2" points="1095.6,330.7 721.9,330.7 721.9,591.4 "/>
</svg>
