<?xml version="1.0" encoding="utf-8"?>
<!-- Generator: Adobe Illustrator 25.0.1, SVG Export Plug-In . SVG Version: 6.00 Build 0)  -->
<svg version="1.1" xmlns="http://www.w3.org/2000/svg" xmlns:xlink="http://www.w3.org/1999/xlink" x="0px" y="0px"
	 viewBox="0 0 1600 900" style="enable-background:new 0 0 1600 900;" xml:space="preserve">
<style type="text/css">
	.st0{fill:#A50000;}
	.st1{font-family:'FuturaPT-Demi';}
	.st2{font-size:80px;}
	.st3{fill:#FFFFFF;}
	.st4{display:none;}
</style>
<g id="Layer_2">
	<rect width="1600" height="900"/>
</g>
<g id="Layer_1">
	<text transform="matrix(1 0 0 1 211.7448 252.4459)"><tspan x="0" y="0" class="st0 st1 st2">WELCOME TO</tspan><tspan x="0" y="96" class="st0 st1 st2">CARNEGIE MELLON UNIVERSITY</tspan><tspan x="0" y="192" class="st0 st1 st2">CLASS OF 2040+</tspan></text>
	<text transform="matrix(1 0 0 1 204.0851 244.7226)"><tspan x="0" y="0" class="st3 st1 st2">WELCOME TO</tspan><tspan x="0" y="96" class="st3 st1 st2">CARNEGIE MELLON UNIVERSITY</tspan><tspan x="0" y="192" class="st3 st1 st2">CLASS OF 2040+</tspan></text>
	<g id="Layer_1_1_" class="st4">
		
			<image style="display:inline;overflow:visible;enable-background:new    ;" width="3840" height="2160" xlink:href="row1.jpg"  transform="matrix(0.4466 0 0 0.4466 -57.4184 -32.2979)">
		</image>
	</g>
	<g>
		<path class="st0" d="M1308.5,716.7c-1.9-0.2-2.3-1.8-3.1-3c-8.6-12.7-17.2-25.4-26-38c-2-2.9-2.9-5.9-2.9-9.4
			c0.1-19.3,0.1-38.5,0.1-57.8c-0.1-23.6-18.2-41.7-41.6-41.7c-23.4,0-41.6,18.1-41.7,41.6c-0.1,19.3-0.1,38.5,0.1,57.8
			c0.1,4-1.4,6.5-4.7,8.6c-25.4,15.7-50.8,31.6-76.2,47.4c-1.1,0.7-2.2,1.4-3.4,1.8c-8.1,2.8-11.5,0.4-11.6-8
			c0-32.9-0.1-65.9,0-98.8c0.1-55.1,43.4-100.3,98.4-104c54.9-3.8,100.7,32.7,111.2,83.4c1.9,9,2.3,18.2,2.4,27.3
			c0.2,29,0.1,58,0.1,87C1309.5,712.8,1310.2,715,1308.5,716.7z"/>
		<path class="st0" d="M1149.9,723.4c1.2-2.8,4-3.9,6.1-5.6c14.3-11.2,28.7-22.2,43-33.4c2.9-2.3,6-3.5,9.7-3.5
			c17.4,0.1,34.8,0.1,52.2,0c4.3-0.1,6.8,1.4,8.9,5.3c5.6,10.3,11.7,20.4,17.6,30.6c4.3,7.6,4.2,7.9-4.8,7.9c-17.2,0-34.4,0-51.7,0
			c-24.9,0-49.8,0-74.6-0.1C1154.2,724.7,1151.8,725.5,1149.9,723.4z"/>
	</g>
	<g>
		<path class="st3" d="M1341.8,754.1c-2.9-0.3-3.6-2.8-4.8-4.6c-13.3-19.5-26.5-39.1-40-58.6c-3.1-4.5-4.4-9.1-4.4-14.5
			c0.2-29.7,0.1-59.4,0.1-89.1c-0.1-36.3-28-64.2-64.1-64.2c-36,0-64.1,27.9-64.3,64.1c-0.2,29.7-0.2,59.4,0.1,89.1
			c0.1,6.2-2.1,10-7.3,13.3c-39.2,24.2-78.3,48.7-117.4,73.1c-1.7,1.1-3.4,2.2-5.3,2.8c-12.5,4.3-17.7,0.6-17.8-12.4
			c0-50.7-0.2-101.5,0-152.2c0.2-84.9,66.8-154.5,151.6-160.3c84.6-5.8,155.2,50.4,171.4,128.5c2.9,13.9,3.6,28,3.7,42.1
			c0.3,44.7,0.2,89.4,0.1,134C1343.3,748.2,1344.5,751.5,1341.8,754.1z"/>
		<path class="st3" d="M1097.4,764.5c1.9-4.3,6.1-6,9.4-8.6c22.1-17.2,44.3-34.2,66.3-51.4c4.5-3.5,9.2-5.4,15-5.4
			c26.8,0.2,53.6,0.2,80.4,0c6.6-0.1,10.5,2.2,13.7,8.1c8.7,15.9,18,31.5,27.1,47.2c6.7,11.7,6.5,12.1-7.4,12.1c-26.5,0-53,0-79.6,0
			c-38.3,0-76.7,0-115-0.1C1104,766.5,1100.4,767.7,1097.4,764.5z"/>
	</g>
</g>
</svg>
