<?xml version="1.0" encoding="utf-8"?>
<!-- Generator: Adobe Illustrator 24.3.0, SVG Export Plug-In . SVG Version: 6.00 Build 0)  -->
<svg version="1.1" id="Layer_1" xmlns="http://www.w3.org/2000/svg" xmlns:xlink="http://www.w3.org/1999/xlink" x="0px" y="0px"
	 viewBox="0 0 1600 900" style="enable-background:new 0 0 1600 900;" xml:space="preserve">
<style type="text/css">
	.st0{fill:#231F20;}
</style>
<g>
	<path class="st0" d="M787.9,242.4c2.5,0,4.3,0,6.1,0c31.8,0,63.7,0,95.5,0c29.9,0,51.5,21.2,51.6,51.2c0.1,26.8,0.1,53.7-0.1,80.5
		c0,4.9,1.4,6.1,6.1,6.1c42.7-0.2,85.3-0.2,128-0.1c14.8,0.1,26,6.7,32,20.5c1.8,4.1,2.5,9,2.6,13.6c0.2,43.5,0.2,87,0.1,130.5
		c0,21.6-15,36.2-36.7,36.2c-42.2,0-84.3,0-126.5,0c-1.8,0-3.6,0-6,0c-0.1,2.1-0.4,3.9-0.4,5.6c0,26.3-0.1,52.7,0,79
		c0.1,31.9-21.3,53.2-53.3,53.1c-59.7-0.1-119.3,0-179,0c-30.5,0-52-21.3-52-51.9c-0.1-87.8-0.1-175.6,0-263.5
		c0-4.2-1.2-6.5-4.9-8.7c-9.9-6.2-20.3-9-32.1-8.8c-27.3,0.6-54.7-0.2-82,0.3c-27.3,0.4-47.4-21.2-46.9-46.9
		c0.7-37.1,0.1-74.3,0.2-111.5c0-28.1,18.6-46.5,46.8-46.5c67.7,0,135.3,0,203,0c29.2,0,47.8,18.7,47.9,47.8
		C787.9,233.4,787.9,237.6,787.9,242.4z M676.8,411.5c-0.1,2.8-0.3,4.4-0.3,6c0,63,0,126,0,189c0,6.4,0,6.4,6.6,6.4
		c40.7,0,81.3,0,122,0c37.3,0,74.7-0.1,112,0.1c4.3,0,6-1.1,5.7-5.6c-0.4-6.8-0.3-13.7-0.1-20.5c0.1-3.5-0.8-5.1-4.7-5.1
		c-12,0.2-24,0.2-36,0c-19.6-0.3-34.9-14.8-35-34.4c-0.3-44.3-0.4-88.7,0-133c0.2-20.3,16.5-34.9,34.7-33.4c4,0.3,8,0.1,12,0.1
		c8.8,0,17.6,0,26.5,0c0-10.7,0-20.7,0-30.7c-0.9-0.2-1.4-0.4-1.8-0.4c-43,0-86,0-129-0.1c-2.7,0-3.5,1.2-4.3,3.6
		c-6.5,18.2-19.1,29.2-38.4,32.2c-1.2,0.2-2.5,0.5-3.9,0.8c0.3,1.5,0.5,2.7,0.8,3.8c4.5,17.4,9.1,34.8,13.6,52.2
		c1.6,6,0.5,10.7-3.1,13.1c-4.7,3-8.9,1.3-13-1.4c-8.3-5.6-16.6-11.1-24.9-16.6C703.3,429.1,690.6,420.7,676.8,411.5z M731.3,425.5
		c-0.7-3.2-1-5-1.4-6.7c-3.2-12.9-6.5-25.8-9.6-38.8c-1.9-7.8,2.3-13.1,10.3-13.5c3.2-0.1,6.3,0,9.5,0c17.5-0.1,27.4-9.8,27.4-27.2
		c0.1-37.3,0.1-74.6,0-111.9c0-16.2-10.5-26.4-26.7-26.5c-11.7-0.1-23.3,0-35,0c-55.8,0-111.6-0.1-167.4,0.1
		c-5.3,0-11.1,0.9-15.8,3.2c-9.5,4.6-13,13.2-13,23.5c0,36.8,0.3,73.6-0.1,110.4c-0.2,16.2,10.4,28.9,28.5,28.5
		c29.1-0.7,58.3-0.2,87.5-0.2c9.2,0,17.9,1.8,25.7,6.8c13.1,8.2,26.2,16.5,39.2,24.9C703.7,406.8,716.9,415.8,731.3,425.5z
		 M978.9,562.5C978.9,562.5,978.9,562.5,978.9,562.5c31.2,0,62.3,0,93.5,0c12.6,0,17.9-4.6,19.8-17c0.4-2.8,0.2-5.7,0.2-8.5
		c0-39.7,0-79.3,0-119c0-12.9-5.4-18.4-18.1-18.4c-63.3,0-126.6,0-189.9,0c-12.2,0-17.7,5.6-17.7,17.7c0,41.7,0.4,83.3-0.2,125
		c-0.2,15.2,8.1,20.5,20.6,20.3C917.6,562.1,948.3,562.5,978.9,562.5z M675.5,631.6c0,12.3-0.1,24.2,0,36.2
		c0.2,18.1,14.4,32.3,32.5,32.3c60.3,0.1,120.7,0.1,181,0c18.4,0,32.5-14.2,32.7-32.7c0.1-10.7,0-21.3,0-32c0-1.3-0.3-2.5-0.5-3.8
		C839.3,631.6,757.7,631.6,675.5,631.6z M921.5,330.8c0-14,0.7-27.2-0.2-40.2c-1-13.8-11.2-24.7-24.5-27.5
		c-4.3-0.9-8.9-0.2-13.3-0.2c-29.7,0-59.3,0-89,0c-1.9,0-3.9,0-6.1,0c0,8.4,0,16.1,0,23.9c1.5,0.1,2.7,0.3,3.8,0.3
		c11.5,0,23,0,34.5,0c4.5,0,8.3,1.3,10,5.9c2.6,7-1.6,13.2-9.3,13.3c-11.5,0.1-23,0.2-34.5-0.1c-4.1-0.1-5.3,1.3-5,5.1
		c0.3,4.3,0.4,8.7,0,13c-0.5,4.9,1,6.5,6.2,6.5c40.5-0.2,81-0.1,121.4-0.1C917.3,330.8,919.1,330.8,921.5,330.8z"/>
	<path class="st0" d="M638.5,264.9c-33.3,0-66.6,0-99.9,0c-8.8,0-13.9-6.9-10.6-14.1c2.1-4.7,6.3-5.5,10.8-5.5c17.2,0,34.3,0,51.5,0
		c49.1,0,98.3,0,147.4,0c4.7,0,9.1,0.6,11.4,5.4c3.5,7.4-1.3,14.2-10.2,14.2c-24,0.1-48,0-71.9,0C657.5,264.9,648,264.9,638.5,264.9
		C638.5,264.9,638.5,264.9,638.5,264.9z"/>
	<path class="st0" d="M639.5,308.5c32.5,0,65,0,97.4,0c1.7,0,3.3,0,5,0.1c5.4,0.4,8.5,3.3,8.9,8.3c0.4,5-2.9,9.7-7.8,10.6
		c-1.6,0.3-3.3,0.3-5,0.3c-66,0-131.9,0.1-197.9-0.1c-3.3,0-7.8-1.2-9.7-3.5c-1.9-2.3-2-6.8-1.4-10.1c0.7-4,4.5-5.5,8.5-5.5
		c13.5,0,27-0.1,40.5-0.1C598.6,308.5,619,308.5,639.5,308.5C639.5,308.5,639.5,308.5,639.5,308.5z"/>
	<path class="st0" d="M934.3,480.5c0-19.2,0-38.3,0-57.5c0-4.5,0.9-8.4,5.3-10.4c4.4-2,8.3-1,12,2.1c22.1,18.5,44.3,36.8,66.4,55.3
		c6,5,6.1,12.9,0.1,18.2c-22.4,19.7-44.9,39.2-67.3,58.8c-3.1,2.8-6.5,3.9-10.5,2c-4.3-2-6-5.4-6-10
		C934.4,519.4,934.3,500,934.3,480.5z M954.1,518.5c15.3-12.9,29.5-25.1,44.2-37.5c-14.9-12.9-29.1-25.3-44.2-38.4
		C954.1,468.3,954.1,492.7,954.1,518.5z"/>
	<path class="st0" d="M827.7,664.2c0,17-12.9,30.2-29.3,30.1c-15.9-0.1-29-13.2-29-28.9c0-16.1,13.1-29.2,29.2-29.2
		C814.6,636.1,827.7,648.8,827.7,664.2z M808.3,667.1c0.1-5.9-4.1-10.5-9.7-10.6c-5.2,0-9.5,4.3-9.6,9.5c-0.1,5.6,4.2,10,9.6,9.9
		C804,675.9,808.2,672,808.3,667.1z"/>
</g>
</svg>
