<?xml version="1.0" encoding="utf-8"?>
<!-- Generator: Adobe Illustrator 25.0.0, SVG Export Plug-In . SVG Version: 6.00 Build 0)  -->
<svg version="1.1" id="Layer_1" xmlns="http://www.w3.org/2000/svg" xmlns:xlink="http://www.w3.org/1999/xlink" x="0px" y="0px"
	 viewBox="0 0 1600 900" style="enable-background:new 0 0 1600 900;" xml:space="preserve">
<style type="text/css">
	.st0{fill:#231F20;}
	.st1{fill:#FFFFFF;stroke:#231F20;stroke-width:8;stroke-miterlimit:10;}
	.st2{fill:#231F20;stroke:#231F20;stroke-width:8;stroke-miterlimit:10;}
	.st3{fill:#FFFFFF;}
</style>
<g>
	<rect x="-836.3" y="205.9" class="st0" width="220.8" height="16.4"/>
	
		<rect x="-1097.4" y="445.9" transform="matrix(-1.836970e-16 1 -1 -1.836970e-16 -403.2627 1303.2627)" class="st0" width="488.2" height="8.2"/>
	
		<rect x="-479.6" y="588.1" transform="matrix(-1.836970e-16 1 -1 -1.836970e-16 214.4812 969.9132)" class="st0" width="203.9" height="8.2"/>
	<rect x="-615.5" y="205.9" class="st0" width="220.8" height="16.4"/>
	<rect x="-836.3" y="239.5" class="st0" width="220.8" height="38.8"/>
	<rect x="-836.3" y="306.5" class="st0" width="220.8" height="50.8"/>
	<rect x="-615.5" y="306.5" class="st0" width="220.8" height="50.8"/>
	<rect x="-836.3" y="490.3" class="st0" width="220.8" height="68"/>
	<rect x="-615.5" y="490.3" class="st0" width="220.8" height="68"/>
	<rect x="-836.3" y="395.2" class="st0" width="220.8" height="57.1"/>
	<rect x="-836.3" y="583.5" class="st0" width="220.8" height="43"/>
	<rect x="-836.3" y="627.8" class="st0" width="220.8" height="33.1"/>
	<rect x="-836.3" y="662.8" class="st0" width="441.7" height="31.4"/>
</g>
<polygon class="st1" points="708.1,656.5 1192.9,656.5 1192.9,449.1 "/>
<polygon class="st1" points="708.1,656.5 1046.2,360.7 945.4,245.3 "/>
<polygon class="st1" points="708.1,656.5 774.2,301.2 632,301.2 "/>
<polyline class="st1" points="708.1,656.5 555.9,440.6 486.1,500 708.1,656.5 "/>
<g>
	<polygon class="st1" points="708.1,656.5 1146.7,468.8 1081.6,329.8 	"/>
	<polygon class="st1" points="708.1,656.5 644.7,360.3 524.7,396.3 	"/>
	<polygon class="st1" points="708.1,656.5 917.2,294.2 784.6,245.3 	"/>
	<polyline class="st1" points="708.1,656.5 529,532.9 503.5,575.3 708.1,656.5 	"/>
	<polyline class="st1" points="708.1,656.5 535.1,626.7 546.4,592.3 708.1,656.5 	"/>
	<polyline class="st1" points="708.1,656.5 567.5,656.5 571.7,633 708.1,656.5 	"/>
</g>
<rect x="679.2" y="669.6" class="st2" width="513.7" height="21.8"/>
<polygon class="st2" points="679.2,691.4 353.2,691.4 353.2,682.6 433.3,682.6 679.2,669.6 "/>
<rect x="546.4" y="660.6" class="st3" width="650.9" height="9"/>
</svg>
