<?xml version="1.0" encoding="utf-8"?>
<!-- Generator: Adobe Illustrator 24.1.1, SVG Export Plug-In . SVG Version: 6.00 Build 0)  -->
<svg version="1.1" xmlns="http://www.w3.org/2000/svg" xmlns:xlink="http://www.w3.org/1999/xlink" x="0px" y="0px"
	 viewBox="0 0 623.32 214.48" style="enable-background:new 0 0 623.32 214.48;" xml:space="preserve">
<style type="text/css">
	.st0{opacity:0.5;}
	.st1{fill:#FFFFFF;}
	.st2{display:none;}
	.st3{display:inline;fill:#FFFFFF;}
	.st4{display:inline;}
	.st5{fill:#FDC012;}
</style>
<g id="Layer_1">
	<g class="st0">
		<g>
			<path class="st1" d="M97.67,126.96h0.01c0.15,8.35,6.95,15.07,15.34,15.07c8.48,0,15.35-6.87,15.35-15.35
				c-0.01-18.5-13.2-33.91-30.7-37.36v4.91v2.99v29.41c0,0.02,0,0.03,0,0.05c0,0.02,0,0.03,0,0.05V126.96z"/>
			<path class="st1" d="M128.58,176.26c0-0.01,0-0.01,0-0.02c0-1.11-0.06-2.2-0.18-3.28c-0.84-7.96-4.72-14.99-10.43-19.98
				c-5.44-4.75-12.53-7.65-20.32-7.65c-0.07,0-0.13,0.01-0.2,0.01v19v42.84v7.32c17.74-3.53,31.12-19.17,31.13-37.95
				c0-0.01,0-0.01,0-0.02s0-0.01,0-0.02v-0.24C128.58,176.27,128.58,176.26,128.58,176.26z"/>
			<path class="st1" d="M164.85,142.06c8.38,0,15.19-6.73,15.34-15.07h0.01v-0.22c0-0.02,0-0.03,0-0.05c0-0.02,0-0.03,0-0.05V97.25
				v-2.99v-4.91c-17.49,3.45-30.69,18.86-30.7,37.36C149.5,135.18,156.37,142.06,164.85,142.06z"/>
			<path class="st1" d="M159.89,153.01c-5.71,4.99-9.58,12.03-10.43,19.98c-0.11,1.08-0.18,2.17-0.18,3.28c0,0.01,0,0.01,0,0.02
				s0,0.01,0,0.02v0.24c0,0.01,0,0.01,0,0.02s0,0.01,0,0.02c0.01,18.78,13.38,34.42,31.13,37.95v-7.32v-42.84v-19
				c-0.07,0-0.13-0.01-0.2-0.01C172.42,145.35,165.33,148.25,159.89,153.01z"/>
			<path class="st1" d="M61.37,101.89c-3.76,4.6-6.02,10.47-6.02,16.87c0,10.83,6.47,20.13,15.74,24.3
				c3.34,1.5,7.03,2.36,10.92,2.36c0.23,0,0.46-0.03,0.69-0.03v-6.73V92.14v-2.79c-7.52,1.52-14.24,5.25-19.45,10.49
				C62.58,100.49,61.97,101.19,61.37,101.89z"/>
			<path class="st1" d="M70.61,162.09c-1.12-0.26-2.28-0.4-3.48-0.4c-8.49,0-15.37,6.8-15.54,15.24c0,0.11-0.02,0.21-0.02,0.32
				c0,0.65,0.05,1.28,0.13,1.9c1.18,17.6,14.08,31.98,30.99,35.34v-11.43v-25.81C82.69,169.85,77.53,163.67,70.61,162.09z"/>
			<path class="st1" d="M405.96,161.69c-1.2,0-2.36,0.15-3.48,0.4c-6.92,1.58-12.08,7.76-12.08,15.16v25.81v11.43
				c16.91-3.36,29.81-17.74,30.99-35.34c0.08-0.63,0.13-1.26,0.13-1.9c0-0.11-0.01-0.21-0.02-0.32
				C421.33,168.48,414.44,161.69,405.96,161.69z"/>
			<path class="st1" d="M195.2,89.38v75.05v50.06h30.3v-87.59C225.5,108.4,212.49,92.95,195.2,89.38z"/>
			<path class="st1" d="M562.67,142.04c8.38,0,15.19-6.73,15.34-15.07h0.01v-0.22c0-0.02,0-0.03,0-0.05c0-0.02,0-0.03,0-0.05V97.23
				v-2.99v-4.91c-17.49,3.45-30.69,18.86-30.7,37.36C547.32,135.17,554.19,142.04,562.67,142.04z"/>
			<path class="st1" d="M557.71,152.99c-5.71,4.99-9.58,12.03-10.43,19.98c-0.11,1.08-0.18,2.17-0.18,3.28c0,0.01,0,0.01,0,0.02
				s0,0.01,0,0.02v0.24c0,0.01,0,0.01,0,0.02s0,0.01,0,0.02c0.01,18.78,13.38,34.42,31.13,37.95v-7.32v-42.84v-19
				c-0.07,0-0.13-0.01-0.2-0.01C570.25,145.34,563.15,148.24,557.71,152.99z"/>
			<path class="st1" d="M593.02,89.37v75.05v50.06h30.3v-87.59C623.32,108.38,610.31,92.94,593.02,89.37z"/>
			<path class="st1" d="M247.71,0.28L247.71,0.28c0.1,0.01,0.19,0,0.29,0H247.71z"/>
			<path class="st1" d="M292.8,88.4v37.02v54.49v34.75c16.57-3.3,29.2-17.46,30.21-34.75h0.1v-54.49h0c0-0.02,0-0.04,0-0.06
				C323.11,107.07,310.08,91.83,292.8,88.4z"/>
			<path class="st1" d="M375.61,214.32v-50.8v-23.58V89.33c-17.29,3.5-30.3,18.78-30.3,37.1v50.89c0,18.04,12.58,33.11,29.43,37.01
				c0.24,0.05,0.46,0.13,0.7,0.18l0.17,0.03l0-0.21V214.32z"/>
			<path class="st1" d="M420.33,133.55c0.13-0.66,0.21-1.33,0.31-2c0.23-1.68,0.39-3.38,0.39-5.12c0-18.43-13.18-33.77-30.62-37.15
				v40.97v9.51v5.64h15.15C412.78,145.4,418.82,140.33,420.33,133.55z"/>
			<path class="st1" d="M0,30.58v122.14h0v60.6h0c16.73,0,30.3-13.57,30.3-30.3V60.88v-30.3V0.28C13.57,0.28,0,13.84,0,30.58z"/>
			<path class="st1" d="M473.21,30.58c0-16.73-13.57-30.3-30.3-30.3v30.3v30.3v122.14c0,16.73,13.57,30.3,30.3,30.3h0v-60.6h0V30.58
				z"/>
			<path class="st1" d="M525.72,30.58c0-16.73-13.57-30.3-30.3-30.3v30.3v30.3v122.14c0,16.73,13.57,30.3,30.3,30.3h0v-60.6h0V30.58
				z"/>
			<path class="st1" d="M248,0.28c-0.1,0-0.2,0.01-0.29,0.01v60v56.03v9.05v52.33c0,18.05,12.7,33.1,29.64,36.8
				c0.22,0.05,0.44,0.12,0.66,0.16v-0.16v-98.18V88.4V30.28C278.01,13.71,264.58,0.28,248,0.28z"/>
		</g>
	</g>
</g>
<g id="Layer_2" class="st2">
	<path class="st3" d="M527.3,550.4H297.29c-15.95,0-28.99-13.05-28.99-28.99V363.39c0-15.95,13.05-28.99,28.99-28.99H527.3
		c15.95,0,28.99,13.05,28.99,28.99V521.4C556.29,537.35,543.25,550.4,527.3,550.4z"/>
	<g class="st4">
		<g>
			<path class="st5" d="M397.43,420.46h0.01c0.15,8.35,6.95,15.07,15.34,15.07c8.48,0,15.35-6.87,15.35-15.35
				c-0.01-18.5-13.2-33.91-30.7-37.36v4.91v2.99v29.41c0,0.02,0,0.03,0,0.05c0,0.02,0,0.03,0,0.05V420.46z"/>
			<path class="st5" d="M428.34,469.76c0-0.01,0-0.01,0-0.02c0-1.11-0.06-2.2-0.18-3.28c-0.84-7.96-4.72-14.99-10.43-19.98
				c-5.44-4.75-12.53-7.65-20.32-7.65c-0.07,0-0.13,0.01-0.2,0.01v19v42.84V508c17.74-3.53,31.12-19.17,31.13-37.95
				c0-0.01,0-0.01,0-0.02s0-0.01,0-0.02v-0.24C428.34,469.77,428.34,469.77,428.34,469.76z"/>
			<path class="st5" d="M464.6,435.56c8.38,0,15.19-6.73,15.34-15.07h0.01v-0.22c0-0.02,0-0.03,0-0.05c0-0.02,0-0.03,0-0.05v-29.41
				v-2.99v-4.91c-17.49,3.45-30.69,18.86-30.7,37.36C449.25,428.69,456.13,435.56,464.6,435.56z"/>
			<path class="st5" d="M459.65,446.51c-5.71,4.99-9.58,12.03-10.43,19.98c-0.11,1.08-0.18,2.17-0.18,3.28c0,0.01,0,0.01,0,0.02
				s0,0.01,0,0.02v0.24c0,0.01,0,0.01,0,0.02s0,0.01,0,0.02c0.01,18.78,13.38,34.42,31.13,37.95v-7.32v-42.84v-19
				c-0.07,0-0.13-0.01-0.2-0.01C472.18,438.86,465.08,441.76,459.65,446.51z"/>
			<path class="st5" d="M361.12,395.4c-3.76,4.6-6.02,10.47-6.02,16.87c0,10.83,6.47,20.13,15.74,24.3
				c3.34,1.5,7.03,2.36,10.92,2.36c0.23,0,0.46-0.03,0.69-0.03v-6.73v-46.52v-2.79c-7.52,1.52-14.24,5.25-19.45,10.49
				C362.34,393.99,361.73,394.69,361.12,395.4z"/>
			<path class="st5" d="M370.36,455.59c-1.12-0.26-2.28-0.4-3.48-0.4c-8.49,0-15.37,6.8-15.54,15.24c0,0.11-0.02,0.21-0.02,0.32
				c0,0.65,0.05,1.28,0.13,1.9c1.18,17.6,14.08,31.98,30.99,35.34v-11.43v-25.81C382.45,463.35,377.28,457.17,370.36,455.59z"/>
			<path class="st5" d="M494.95,382.88v75.05V508h30.3v-87.59C525.25,401.9,512.25,386.45,494.95,382.88z"/>
			<path class="st5" d="M299.76,411.45v34.77h0v60.6h0c16.73,0,30.3-13.57,30.3-30.3v-95.37l0,0l0,0
				C313.32,381.15,299.76,394.72,299.76,411.45z"/>
		</g>
	</g>
</g>
</svg>
