<?xml version="1.0" encoding="utf-8"?>
<!-- Generator: Adobe Illustrator 25.0.0, SVG Export Plug-In . SVG Version: 6.00 Build 0)  -->
<svg version="1.1" id="Layer_1" xmlns="http://www.w3.org/2000/svg" xmlns:xlink="http://www.w3.org/1999/xlink" x="0px" y="0px"
	 viewBox="0 0 342.4 214.5" style="enable-background:new 0 0 342.4 214.5;" xml:space="preserve">
<style type="text/css">
	.st0{clip-path:url(#SVGID_2_);}
	.st1{fill:none;stroke:#000000;stroke-width:3.2229;stroke-miterlimit:10;}
	.st2{clip-path:url(#SVGID_4_);}
</style>
<g>
	<defs>
		<path id="SVGID_1_" d="M189.2,0v45.2H80.3v42.9h108.9v126.4h42.9v-42.9h67.4v42.9h42.9V0H189.2z M232.1,128.7V42.9h67.4v85.8
			H232.1z"/>
	</defs>
	<clipPath id="SVGID_2_">
		<use xlink:href="#SVGID_1_"  style="overflow:visible;"/>
	</clipPath>
	<g class="st0">
		<g>
			<line class="st1" x1="630.1" y1="237.9" x2="630.1" y2="-57.5"/>
		</g>
		<g>
			<line class="st1" x1="619.2" y1="237.9" x2="619.2" y2="-57.5"/>
		</g>
		<g>
			<line class="st1" x1="608.2" y1="237.9" x2="608.2" y2="-57.5"/>
		</g>
		<g>
			<line class="st1" x1="597.2" y1="237.9" x2="597.2" y2="-57.5"/>
		</g>
		<g>
			<line class="st1" x1="586.3" y1="237.9" x2="586.3" y2="-57.5"/>
		</g>
		<g>
			<line class="st1" x1="575.3" y1="237.9" x2="575.3" y2="-57.5"/>
		</g>
		<g>
			<line class="st1" x1="564.4" y1="237.9" x2="564.4" y2="-57.5"/>
		</g>
		<g>
			<line class="st1" x1="553.4" y1="237.9" x2="553.4" y2="-57.5"/>
		</g>
		<g>
			<line class="st1" x1="542.5" y1="237.9" x2="542.5" y2="-57.5"/>
		</g>
		<g>
			<line class="st1" x1="531.5" y1="237.9" x2="531.5" y2="-57.5"/>
		</g>
		<g>
			<line class="st1" x1="520.5" y1="237.9" x2="520.5" y2="-57.5"/>
		</g>
		<g>
			<line class="st1" x1="509.6" y1="237.9" x2="509.6" y2="-57.5"/>
		</g>
		<g>
			<line class="st1" x1="498.6" y1="237.9" x2="498.6" y2="-57.5"/>
		</g>
		<g>
			<line class="st1" x1="487.7" y1="237.9" x2="487.7" y2="-57.5"/>
		</g>
		<g>
			<line class="st1" x1="476.7" y1="237.9" x2="476.7" y2="-57.5"/>
		</g>
		<g>
			<line class="st1" x1="465.7" y1="237.9" x2="465.7" y2="-57.5"/>
		</g>
		<g>
			<line class="st1" x1="454.8" y1="237.9" x2="454.8" y2="-57.5"/>
		</g>
		<g>
			<line class="st1" x1="443.8" y1="237.9" x2="443.8" y2="-57.5"/>
		</g>
		<g>
			<line class="st1" x1="432.9" y1="237.9" x2="432.9" y2="-57.5"/>
		</g>
		<g>
			<line class="st1" x1="421.9" y1="237.9" x2="421.9" y2="-57.5"/>
		</g>
		<g>
			<line class="st1" x1="411" y1="237.9" x2="411" y2="-57.5"/>
		</g>
		<g>
			<line class="st1" x1="400" y1="237.9" x2="400" y2="-57.5"/>
		</g>
		<g>
			<line class="st1" x1="389" y1="237.9" x2="389" y2="-57.5"/>
		</g>
		<g>
			<line class="st1" x1="378.1" y1="237.9" x2="378.1" y2="-57.5"/>
		</g>
		<g>
			<line class="st1" x1="367.1" y1="237.9" x2="367.1" y2="-57.5"/>
		</g>
		<g>
			<line class="st1" x1="356.2" y1="237.9" x2="356.2" y2="-57.5"/>
		</g>
		<g>
			<line class="st1" x1="345.2" y1="237.9" x2="345.2" y2="-57.5"/>
		</g>
		<g>
			<line class="st1" x1="334.3" y1="237.9" x2="334.3" y2="-57.5"/>
		</g>
		<g>
			<line class="st1" x1="323.3" y1="237.9" x2="323.3" y2="-57.5"/>
		</g>
		<g>
			<line class="st1" x1="312.3" y1="237.9" x2="312.3" y2="-57.5"/>
		</g>
		<g>
			<line class="st1" x1="301.4" y1="237.9" x2="301.4" y2="-57.5"/>
		</g>
		<g>
			<line class="st1" x1="290.4" y1="237.9" x2="290.4" y2="-57.5"/>
		</g>
		<g>
			<line class="st1" x1="279.5" y1="237.9" x2="279.5" y2="-57.5"/>
		</g>
		<g>
			<line class="st1" x1="268.5" y1="237.9" x2="268.5" y2="-57.5"/>
		</g>
		<g>
			<line class="st1" x1="257.6" y1="237.9" x2="257.6" y2="-57.5"/>
		</g>
		<g>
			<line class="st1" x1="246.6" y1="237.9" x2="246.6" y2="-57.5"/>
		</g>
		<g>
			<line class="st1" x1="235.6" y1="237.9" x2="235.6" y2="-57.5"/>
		</g>
		<g>
			<line class="st1" x1="224.7" y1="237.9" x2="224.7" y2="-57.5"/>
		</g>
		<g>
			<line class="st1" x1="213.7" y1="237.9" x2="213.7" y2="-57.5"/>
		</g>
		<g>
			<line class="st1" x1="202.8" y1="237.9" x2="202.8" y2="-57.5"/>
		</g>
		<g>
			<line class="st1" x1="191.8" y1="237.9" x2="191.8" y2="-57.5"/>
		</g>
		<g>
			<line class="st1" x1="180.8" y1="237.9" x2="180.8" y2="-57.5"/>
		</g>
		<g>
			<line class="st1" x1="169.9" y1="237.9" x2="169.9" y2="-57.5"/>
		</g>
		<g>
			<line class="st1" x1="158.9" y1="237.9" x2="158.9" y2="-57.5"/>
		</g>
		<g>
			<line class="st1" x1="148" y1="237.9" x2="148" y2="-57.5"/>
		</g>
		<g>
			<line class="st1" x1="137" y1="237.9" x2="137" y2="-57.5"/>
		</g>
		<g>
			<line class="st1" x1="126.1" y1="237.9" x2="126.1" y2="-57.5"/>
		</g>
		<g>
			<line class="st1" x1="115.1" y1="237.9" x2="115.1" y2="-57.5"/>
		</g>
		<g>
			<line class="st1" x1="104.1" y1="237.9" x2="104.1" y2="-57.5"/>
		</g>
		<g>
			<line class="st1" x1="93.2" y1="237.9" x2="93.2" y2="-57.5"/>
		</g>
		<g>
			<line class="st1" x1="82.2" y1="237.9" x2="82.2" y2="-57.5"/>
		</g>
		<g>
			<line class="st1" x1="71.3" y1="237.9" x2="71.3" y2="-57.5"/>
		</g>
		<g>
			<line class="st1" x1="60.3" y1="237.9" x2="60.3" y2="-57.5"/>
		</g>
		<g>
			<line class="st1" x1="49.4" y1="237.9" x2="49.4" y2="-57.5"/>
		</g>
		<g>
			<line class="st1" x1="38.4" y1="237.9" x2="38.4" y2="-57.5"/>
		</g>
		<g>
			<line class="st1" x1="27.4" y1="237.9" x2="27.4" y2="-57.5"/>
		</g>
		<g>
			<line class="st1" x1="16.5" y1="237.9" x2="16.5" y2="-57.5"/>
		</g>
		<g>
			<line class="st1" x1="5.5" y1="237.9" x2="5.5" y2="-57.5"/>
		</g>
		<g>
			<line class="st1" x1="-5.4" y1="237.9" x2="-5.4" y2="-57.5"/>
		</g>
		<g>
			<line class="st1" x1="-16.4" y1="237.9" x2="-16.4" y2="-57.5"/>
		</g>
		<g>
			<line class="st1" x1="-27.3" y1="237.9" x2="-27.3" y2="-57.5"/>
		</g>
	</g>
</g>
<g>
	<defs>
		<polygon id="SVGID_3_" points="149.8,132.5 149.8,175.4 42.9,175.4 42.9,214.5 0,214.5 0,0 42.9,0 42.9,132.5 		"/>
	</defs>
	<clipPath id="SVGID_4_">
		<use xlink:href="#SVGID_3_"  style="overflow:visible;"/>
	</clipPath>
	<g class="st2">
		<g>
			<line class="st1" x1="630.1" y1="237.9" x2="630.1" y2="-57.5"/>
		</g>
		<g>
			<line class="st1" x1="619.2" y1="237.9" x2="619.2" y2="-57.5"/>
		</g>
		<g>
			<line class="st1" x1="608.2" y1="237.9" x2="608.2" y2="-57.5"/>
		</g>
		<g>
			<line class="st1" x1="597.2" y1="237.9" x2="597.2" y2="-57.5"/>
		</g>
		<g>
			<line class="st1" x1="586.3" y1="237.9" x2="586.3" y2="-57.5"/>
		</g>
		<g>
			<line class="st1" x1="575.3" y1="237.9" x2="575.3" y2="-57.5"/>
		</g>
		<g>
			<line class="st1" x1="564.4" y1="237.9" x2="564.4" y2="-57.5"/>
		</g>
		<g>
			<line class="st1" x1="553.4" y1="237.9" x2="553.4" y2="-57.5"/>
		</g>
		<g>
			<line class="st1" x1="542.5" y1="237.9" x2="542.5" y2="-57.5"/>
		</g>
		<g>
			<line class="st1" x1="531.5" y1="237.9" x2="531.5" y2="-57.5"/>
		</g>
		<g>
			<line class="st1" x1="520.5" y1="237.9" x2="520.5" y2="-57.5"/>
		</g>
		<g>
			<line class="st1" x1="509.6" y1="237.9" x2="509.6" y2="-57.5"/>
		</g>
		<g>
			<line class="st1" x1="498.6" y1="237.9" x2="498.6" y2="-57.5"/>
		</g>
		<g>
			<line class="st1" x1="487.7" y1="237.9" x2="487.7" y2="-57.5"/>
		</g>
		<g>
			<line class="st1" x1="476.7" y1="237.9" x2="476.7" y2="-57.5"/>
		</g>
		<g>
			<line class="st1" x1="465.7" y1="237.9" x2="465.7" y2="-57.5"/>
		</g>
		<g>
			<line class="st1" x1="454.8" y1="237.9" x2="454.8" y2="-57.5"/>
		</g>
		<g>
			<line class="st1" x1="443.8" y1="237.9" x2="443.8" y2="-57.5"/>
		</g>
		<g>
			<line class="st1" x1="432.9" y1="237.9" x2="432.9" y2="-57.5"/>
		</g>
		<g>
			<line class="st1" x1="421.9" y1="237.9" x2="421.9" y2="-57.5"/>
		</g>
		<g>
			<line class="st1" x1="411" y1="237.9" x2="411" y2="-57.5"/>
		</g>
		<g>
			<line class="st1" x1="400" y1="237.9" x2="400" y2="-57.5"/>
		</g>
		<g>
			<line class="st1" x1="389" y1="237.9" x2="389" y2="-57.5"/>
		</g>
		<g>
			<line class="st1" x1="378.1" y1="237.9" x2="378.1" y2="-57.5"/>
		</g>
		<g>
			<line class="st1" x1="367.1" y1="237.9" x2="367.1" y2="-57.5"/>
		</g>
		<g>
			<line class="st1" x1="356.2" y1="237.9" x2="356.2" y2="-57.5"/>
		</g>
		<g>
			<line class="st1" x1="345.2" y1="237.9" x2="345.2" y2="-57.5"/>
		</g>
		<g>
			<line class="st1" x1="334.3" y1="237.9" x2="334.3" y2="-57.5"/>
		</g>
		<g>
			<line class="st1" x1="323.3" y1="237.9" x2="323.3" y2="-57.5"/>
		</g>
		<g>
			<line class="st1" x1="312.3" y1="237.9" x2="312.3" y2="-57.5"/>
		</g>
		<g>
			<line class="st1" x1="301.4" y1="237.9" x2="301.4" y2="-57.5"/>
		</g>
		<g>
			<line class="st1" x1="290.4" y1="237.9" x2="290.4" y2="-57.5"/>
		</g>
		<g>
			<line class="st1" x1="279.5" y1="237.9" x2="279.5" y2="-57.5"/>
		</g>
		<g>
			<line class="st1" x1="268.5" y1="237.9" x2="268.5" y2="-57.5"/>
		</g>
		<g>
			<line class="st1" x1="257.6" y1="237.9" x2="257.6" y2="-57.5"/>
		</g>
		<g>
			<line class="st1" x1="246.6" y1="237.9" x2="246.6" y2="-57.5"/>
		</g>
		<g>
			<line class="st1" x1="235.6" y1="237.9" x2="235.6" y2="-57.5"/>
		</g>
		<g>
			<line class="st1" x1="224.7" y1="237.9" x2="224.7" y2="-57.5"/>
		</g>
		<g>
			<line class="st1" x1="213.7" y1="237.9" x2="213.7" y2="-57.5"/>
		</g>
		<g>
			<line class="st1" x1="202.8" y1="237.9" x2="202.8" y2="-57.5"/>
		</g>
		<g>
			<line class="st1" x1="191.8" y1="237.9" x2="191.8" y2="-57.5"/>
		</g>
		<g>
			<line class="st1" x1="180.8" y1="237.9" x2="180.8" y2="-57.5"/>
		</g>
		<g>
			<line class="st1" x1="169.9" y1="237.9" x2="169.9" y2="-57.5"/>
		</g>
		<g>
			<line class="st1" x1="158.9" y1="237.9" x2="158.9" y2="-57.5"/>
		</g>
		<g>
			<line class="st1" x1="148" y1="237.9" x2="148" y2="-57.5"/>
		</g>
		<g>
			<line class="st1" x1="137" y1="237.9" x2="137" y2="-57.5"/>
		</g>
		<g>
			<line class="st1" x1="126.1" y1="237.9" x2="126.1" y2="-57.5"/>
		</g>
		<g>
			<line class="st1" x1="115.1" y1="237.9" x2="115.1" y2="-57.5"/>
		</g>
		<g>
			<line class="st1" x1="104.1" y1="237.9" x2="104.1" y2="-57.5"/>
		</g>
		<g>
			<line class="st1" x1="93.2" y1="237.9" x2="93.2" y2="-57.5"/>
		</g>
		<g>
			<line class="st1" x1="82.2" y1="237.9" x2="82.2" y2="-57.5"/>
		</g>
		<g>
			<line class="st1" x1="71.3" y1="237.9" x2="71.3" y2="-57.5"/>
		</g>
		<g>
			<line class="st1" x1="60.3" y1="237.9" x2="60.3" y2="-57.5"/>
		</g>
		<g>
			<line class="st1" x1="49.4" y1="237.9" x2="49.4" y2="-57.5"/>
		</g>
		<g>
			<line class="st1" x1="38.4" y1="237.9" x2="38.4" y2="-57.5"/>
		</g>
		<g>
			<line class="st1" x1="27.4" y1="237.9" x2="27.4" y2="-57.5"/>
		</g>
		<g>
			<line class="st1" x1="16.5" y1="237.9" x2="16.5" y2="-57.5"/>
		</g>
		<g>
			<line class="st1" x1="5.5" y1="237.9" x2="5.5" y2="-57.5"/>
		</g>
		<g>
			<line class="st1" x1="-5.4" y1="237.9" x2="-5.4" y2="-57.5"/>
		</g>
		<g>
			<line class="st1" x1="-16.4" y1="237.9" x2="-16.4" y2="-57.5"/>
		</g>
		<g>
			<line class="st1" x1="-27.3" y1="237.9" x2="-27.3" y2="-57.5"/>
		</g>
	</g>
</g>
</svg>
