<?xml version="1.0" encoding="utf-8"?>
<!-- Generator: Adobe Illustrator 25.0.0, SVG Export Plug-In . SVG Version: 6.00 Build 0)  -->
<svg version="1.1" id="Layer_1" xmlns="http://www.w3.org/2000/svg" xmlns:xlink="http://www.w3.org/1999/xlink" x="0px" y="0px"
	 viewBox="0 0 623.3 214.5" style="enable-background:new 0 0 623.3 214.5;" xml:space="preserve">
<style type="text/css">
	.st0{fill:#343A40;}
	.st1{display:none;}
	.st2{display:inline;fill:#FFFFFF;}
	.st3{display:inline;}
	.st4{fill:#FDC012;}
	.st5{fill:#FFFFFF;}
</style>
<g id="Layer_1_2_">
	<g id="Layer_1_1_">
		<g>
			<g>
				<g>
					<path class="st0" d="M69.4,127L69.4,127c0.1,8.3,5,15.1,10.9,15.1c6,0,10.9-6.9,10.9-15.3c0-18.5-9.4-33.9-21.8-37.4v4.9v3
						v29.4c0,0,0,0,0,0.1C69.5,126.8,69.5,126.8,69.4,127L69.4,127L69.4,127z"/>
					<path class="st0" d="M91.4,176.3L91.4,176.3c0-1.1-0.1-2.2-0.1-3.3c-0.6-8-3.3-15-7.4-20c-3.8-4.8-8.9-7.6-14.4-7.6
						c-0.1,0-0.1,0-0.1,0v19v42.8v7.3c12.6-3.5,22.1-19.2,22.1-37.9l0,0l0,0L91.4,176.3L91.4,176.3z"/>
					<path class="st0" d="M117.2,142.1c6,0,10.8-6.7,10.9-15.1l0,0v-0.2c0,0,0,0,0-0.1c0,0,0,0,0-0.1V97.3v-3v-4.9
						c-12.4,3.4-21.8,18.9-21.8,37.4C106.2,135.2,111.1,142.1,117.2,142.1z"/>
					<path class="st0" d="M113.6,153c-4.1,5-6.8,12-7.4,20c-0.1,1.1-0.1,2.2-0.1,3.3l0,0l0,0v0.2l0,0l0,0c0,18.8,9.5,34.4,22.1,37.9
						v-7.3v-42.8v-19c-0.1,0-0.1,0-0.1,0C122.5,145.4,117.5,148.3,113.6,153z"/>
					<path class="st0" d="M43.6,101.9c-2.7,4.6-4.3,10.5-4.3,16.9c0,10.8,4.6,20.1,11.2,24.3c2.3,1.5,5,2.4,7.7,2.4
						c0.1,0,0.4,0,0.5,0v-6.7V92.1v-2.8c-5.3,1.5-10.1,5.3-13.9,10.5C44.5,100.5,44.1,101.2,43.6,101.9z"/>
					<path class="st0" d="M50.2,162.1c-0.8-0.3-1.6-0.4-2.5-0.4c-6,0-10.9,6.8-11,15.2c0,0.1,0,0.2,0,0.3c0,0.6,0,1.3,0.1,1.9
						c0.9,17.6,10,32,22,35.3V203v-25.8C58.8,169.9,55.1,163.7,50.2,162.1z"/>
					<path class="st0" d="M288.5,161.7c-0.9,0-1.7,0.1-2.5,0.4c-4.9,1.6-8.6,7.8-8.6,15.2v25.8v11.4c12-3.4,21.2-17.7,22-35.3
						c0.1-0.6,0.1-1.3,0.1-1.9c0-0.1,0-0.2,0-0.3C299.4,168.5,294.5,161.7,288.5,161.7z"/>
					<path class="st0" d="M138.7,89.4v75v50.1h21.5v-87.6C160.2,108.4,151,92.9,138.7,89.4z"/>
					<path class="st0" d="M399.8,142c6,0,10.8-6.7,10.9-15.1l0,0v-0.2c0,0,0,0,0-0.1c0,0,0,0,0-0.1V97.2v-3v-4.9
						c-12.4,3.4-21.8,18.9-21.8,37.4C388.9,135.2,393.8,142,399.8,142z"/>
					<path class="st0" d="M396.3,153c-4.1,5-6.8,12-7.4,20c-0.1,1.1-0.1,2.2-0.1,3.3l0,0l0,0v0.2l0,0l0,0c0,18.8,9.5,34.4,22.1,37.9
						v-7.3v-42.8v-19c-0.1,0-0.1,0-0.1,0C405.2,145.3,400.2,148.2,396.3,153z"/>
					<path class="st0" d="M421.4,89.4v75.1v50.1h21.5V127C442.9,108.4,433.7,92.9,421.4,89.4z"/>
					<path class="st0" d="M176,0.3L176,0.3c0.1,0,0.1,0,0.2,0H176z"/>
					<path class="st0" d="M208.1,88.4v37v54.5v34.8c11.8-3.3,20.7-17.5,21.5-34.8h0.1v-54.5l0,0c0,0,0,0,0-0.1
						C229.6,107.1,220.3,91.8,208.1,88.4z"/>
					<path class="st0" d="M266.9,214.3v-50.8v-23.6V89.3c-12.3,3.5-21.5,18.8-21.5,37.1v50.9c0,18,9,33.1,20.9,37
						c0.1,0.1,0.4,0.1,0.5,0.2h0.1V214.3L266.9,214.3L266.9,214.3z"/>
					<path class="st0" d="M298.7,133.6c0.1-0.7,0.1-1.3,0.2-2c0.1-1.7,0.3-3.4,0.3-5.1c0-18.4-9.4-33.8-21.7-37.2v41v9.5v5.6h10.7
						C293.3,145.4,297.6,140.3,298.7,133.6z"/>
					<path class="st0" d="M0,30.6v122.1l0,0v60.6l0,0c11.9,0,21.5-13.6,21.5-30.3V60.9V30.6V0.3C9.7,0.3,0,13.8,0,30.6z"/>
					<path class="st0" d="M336.2,30.6c0-16.7-9.7-30.3-21.5-30.3v30.3v30.3V183c0,16.7,9.7,30.3,21.5,30.3l0,0v-60.6l0,0V30.6z"/>
					<path class="st0" d="M373.5,30.6c0-16.7-9.7-30.3-21.5-30.3v30.3v30.3V183c0,16.7,9.7,30.3,21.5,30.3l0,0v-60.6l0,0V30.6z"/>
					<path class="st0" d="M176.2,0.3c-0.1,0-0.1,0-0.2,0v60v56v9.1v52.3c0,18.1,9,33.1,21,36.8c0.1,0.1,0.3,0.1,0.5,0.2v-0.2v-98.2
						V88.4V30.3C197.5,13.7,188,0.3,176.2,0.3z"/>
				</g>
			</g>
		</g>
	</g>
	<g id="Layer_2_1_" class="st1">
		<path class="st2" d="M374.7,550.4H211.3c-11.4,0-20.6-13-20.6-29v-158c0-16,9.2-29,20.6-29h163.4c11.4,0,20.6,13,20.6,29v158
			C395.3,537.3,386.1,550.4,374.7,550.4z"/>
		<g class="st3">
			<g>
				<path class="st4" d="M282.4,420.5L282.4,420.5c0.1,8.4,5,15.1,10.9,15.1c6,0,10.9-6.9,10.9-15.4c0-18.5-9.4-33.9-21.8-37.4v4.9
					v3v29.4l0,0l0,0L282.4,420.5L282.4,420.5z"/>
				<path class="st4" d="M304.3,469.8L304.3,469.8c0-1.1-0.1-2.2-0.1-3.3c-0.6-8-3.3-15-7.4-20c-3.8-4.8-8.9-7.6-14.4-7.6
					c-0.1,0-0.1,0-0.1,0v19v42.8v7.3c12.6-3.5,22.1-19.2,22.1-38l0,0l0,0V469.8L304.3,469.8z"/>
				<path class="st4" d="M330.1,435.6c6,0,10.8-6.7,10.9-15.1l0,0v-0.2l0,0l0,0v-29.4v-3V383c-12.4,3.5-21.8,18.9-21.8,37.4
					C319.3,428.7,324.1,435.6,330.1,435.6z"/>
				<path class="st4" d="M326.6,446.5c-4.1,5-6.8,12-7.4,20c-0.1,1.1-0.1,2.2-0.1,3.3l0,0l0,0v0.2l0,0l0,0c0,18.8,9.5,34.4,22.1,38
					v-7.3v-42.8v-19c-0.1,0-0.1,0-0.1,0C335.5,438.9,330.5,441.8,326.6,446.5z"/>
				<path class="st4" d="M256.6,395.4c-2.7,4.6-4.3,10.5-4.3,16.9c0,10.8,4.6,20.1,11.2,24.3c2.3,1.5,5,2.4,7.7,2.4
					c0.1,0,0.4,0,0.5,0v-6.7v-46.5V383c-5.3,1.5-10.1,5.3-13.9,10.5C257.4,394,257,394.7,256.6,395.4z"/>
				<path class="st4" d="M263.2,455.6c-0.8-0.3-1.6-0.4-2.5-0.4c-6,0-10.9,6.8-11,15.2c0,0.1,0,0.2,0,0.3c0,0.6,0,1.3,0.1,1.9
					c0.9,17.6,10,32,22,35.3v-11.4v-25.8C271.8,463.4,268.1,457.2,263.2,455.6z"/>
				<path class="st4" d="M351.7,382.9v75V508h21.5v-87.6C373.3,401.9,364,386.5,351.7,382.9z"/>
				<path class="st4" d="M213,411.5v34.8l0,0v60.6l0,0c11.9,0,21.5-13.6,21.5-30.3v-95.4l0,0l0,0C222.6,381.1,213,394.7,213,411.5z"
					/>
			</g>
		</g>
	</g>
</g>
<rect class="st5" width="27.2" height="214.7"/>
<rect x="174.8" class="st5" width="24" height="214.7"/>
<rect x="311.6" class="st5" width="64.3" height="214.7"/>
<rect x="352" class="st0" width="8.7" height="214.4"/>
<rect x="364.9" class="st0" width="8.7" height="214.4"/>
<rect class="st0" width="8.7" height="214.4"/>
<rect x="12.9" class="st0" width="8.7" height="214.4"/>
<rect x="176" class="st0" width="8.7" height="214.4"/>
<rect x="188.9" class="st0" width="8.7" height="214.4"/>
<rect x="314.7" class="st0" width="8.7" height="214.4"/>
<rect x="327.6" class="st0" width="8.7" height="214.4"/>
</svg>
