<?xml version="1.0" encoding="utf-8"?>
<!-- Generator: Adobe Illustrator 25.0.0, SVG Export Plug-In . SVG Version: 6.00 Build 0)  -->
<svg version="1.1" xmlns="http://www.w3.org/2000/svg" xmlns:xlink="http://www.w3.org/1999/xlink" x="0px" y="0px"
	 viewBox="0 0 623.3 214.5" style="enable-background:new 0 0 623.3 214.5;" xml:space="preserve">
<style type="text/css">
	.st0{fill:#343A40;}
	.st1{display:none;}
	.st2{display:inline;fill:#FFFFFF;}
	.st3{display:inline;}
	.st4{fill:#FDC012;}
</style>
<g id="Layer_1">
	<g id="Layer_1_1_">
		<g>
			<g>
				<g>
					<path class="st0" d="M97.7,127L97.7,127c0.2,8.3,7,15.1,15.4,15.1c8.5,0,15.4-6.9,15.4-15.3c0-18.5-13.2-33.9-30.7-37.4v4.9v3
						v29.4c0,0,0,0,0,0.1c0,0,0,0,0,0.1L97.7,127L97.7,127z"/>
					<path class="st0" d="M128.6,176.3L128.6,176.3c0-1.1-0.1-2.2-0.2-3.3c-0.8-8-4.7-15-10.4-20c-5.4-4.8-12.5-7.6-20.3-7.6
						c-0.1,0-0.1,0-0.2,0v19v42.8v7.3c17.7-3.5,31.1-19.2,31.1-37.9l0,0l0,0L128.6,176.3L128.6,176.3z"/>
					<path class="st0" d="M164.9,142.1c8.4,0,15.2-6.7,15.3-15.1l0,0v-0.2c0,0,0,0,0-0.1c0,0,0,0,0-0.1V97.3v-3v-4.9
						c-17.5,3.4-30.7,18.9-30.7,37.4C149.5,135.2,156.4,142.1,164.9,142.1z"/>
					<path class="st0" d="M159.9,153c-5.7,5-9.6,12-10.4,20c-0.1,1.1-0.2,2.2-0.2,3.3l0,0l0,0v0.2l0,0l0,0
						c0,18.8,13.4,34.4,31.1,37.9v-7.3v-42.8v-19c-0.1,0-0.1,0-0.2,0C172.4,145.4,165.3,148.3,159.9,153z"/>
					<path class="st0" d="M61.4,101.9c-3.8,4.6-6,10.5-6,16.9c0,10.8,6.5,20.1,15.7,24.3c3.3,1.5,7,2.4,10.9,2.4c0.2,0,0.5,0,0.7,0
						v-6.7V92.1v-2.8c-7.5,1.5-14.2,5.3-19.5,10.5C62.6,100.5,62,101.2,61.4,101.9z"/>
					<path class="st0" d="M70.6,162.1c-1.1-0.3-2.3-0.4-3.5-0.4c-8.5,0-15.4,6.8-15.5,15.2c0,0.1,0,0.2,0,0.3c0,0.6,0,1.3,0.1,1.9
						c1.2,17.6,14.1,32,31,35.3V203v-25.8C82.7,169.9,77.5,163.7,70.6,162.1z"/>
					<path class="st0" d="M406,161.7c-1.2,0-2.4,0.1-3.5,0.4c-6.9,1.6-12.1,7.8-12.1,15.2v25.8v11.4c16.9-3.4,29.8-17.7,31-35.3
						c0.1-0.6,0.1-1.3,0.1-1.9c0-0.1,0-0.2,0-0.3C421.3,168.5,414.4,161.7,406,161.7z"/>
					<path class="st0" d="M195.2,89.4v75v50.1h30.3v-87.6C225.5,108.4,212.5,92.9,195.2,89.4z"/>
					<path class="st0" d="M562.7,142c8.4,0,15.2-6.7,15.3-15.1l0,0v-0.2c0,0,0,0,0-0.1c0,0,0,0,0-0.1V97.2v-3v-4.9
						c-17.5,3.4-30.7,18.9-30.7,37.4C547.3,135.2,554.2,142,562.7,142z"/>
					<path class="st0" d="M557.7,153c-5.7,5-9.6,12-10.4,20c-0.1,1.1-0.2,2.2-0.2,3.3l0,0l0,0v0.2l0,0l0,0
						c0,18.8,13.4,34.4,31.1,37.9v-7.3v-42.8v-19c-0.1,0-0.1,0-0.2,0C570.3,145.3,563.2,148.2,557.7,153z"/>
					<path class="st0" d="M593,89.4v75.1v50.1h30.3V127C623.3,108.4,610.3,92.9,593,89.4z"/>
					<path class="st0" d="M247.7,0.3L247.7,0.3c0.1,0,0.2,0,0.3,0H247.7z"/>
					<path class="st0" d="M292.8,88.4v37v54.5v34.8c16.6-3.3,29.2-17.5,30.2-34.8h0.1v-54.5l0,0c0,0,0,0,0-0.1
						C323.1,107.1,310.1,91.8,292.8,88.4z"/>
					<path class="st0" d="M375.6,214.3v-50.8v-23.6V89.3c-17.3,3.5-30.3,18.8-30.3,37.1v50.9c0,18,12.6,33.1,29.4,37
						c0.2,0.1,0.5,0.1,0.7,0.2h0.2L375.6,214.3L375.6,214.3L375.6,214.3z"/>
					<path class="st0" d="M420.3,133.6c0.1-0.7,0.2-1.3,0.3-2c0.2-1.7,0.4-3.4,0.4-5.1c0-18.4-13.2-33.8-30.6-37.2v41v9.5v5.6h15.1
						C412.8,145.4,418.8,140.3,420.3,133.6z"/>
					<path class="st0" d="M0,30.6v122.1l0,0v60.6l0,0c16.7,0,30.3-13.6,30.3-30.3V60.9V30.6V0.3C13.6,0.3,0,13.8,0,30.6z"/>
					<path class="st0" d="M473.2,30.6c0-16.7-13.6-30.3-30.3-30.3v30.3v30.3V183c0,16.7,13.6,30.3,30.3,30.3l0,0v-60.6l0,0V30.6z"/>
					<path class="st0" d="M525.7,30.6c0-16.7-13.6-30.3-30.3-30.3v30.3v30.3V183c0,16.7,13.6,30.3,30.3,30.3l0,0v-60.6l0,0V30.6z"/>
					<path class="st0" d="M248,0.3c-0.1,0-0.2,0-0.3,0v60v56v9.1v52.3c0,18.1,12.7,33.1,29.6,36.8c0.2,0.1,0.4,0.1,0.7,0.2v-0.2
						v-98.2V88.4V30.3C278,13.7,264.6,0.3,248,0.3z"/>
				</g>
			</g>
		</g>
	</g>
	<g id="Layer_2_1_" class="st1">
		<path class="st2" d="M527.3,550.4h-230c-16,0-29-13-29-29v-158c0-16,13-29,29-29h230c16,0,29,13,29,29v158
			C556.3,537.3,543.3,550.4,527.3,550.4z"/>
		<g class="st3">
			<g>
				<path class="st4" d="M397.4,420.5L397.4,420.5c0.2,8.4,7,15.1,15.4,15.1c8.5,0,15.4-6.9,15.4-15.4c0-18.5-13.2-33.9-30.7-37.4
					v4.9v3v29.4l0,0l0,0L397.4,420.5L397.4,420.5z"/>
				<path class="st4" d="M428.3,469.8L428.3,469.8c0-1.1-0.1-2.2-0.2-3.3c-0.8-8-4.7-15-10.4-20c-5.4-4.8-12.5-7.6-20.3-7.6
					c-0.1,0-0.1,0-0.2,0v19v42.8v7.3c17.7-3.5,31.1-19.2,31.1-38l0,0l0,0V469.8L428.3,469.8z"/>
				<path class="st4" d="M464.6,435.6c8.4,0,15.2-6.7,15.3-15.1l0,0v-0.2l0,0l0,0v-29.4v-3V383c-17.5,3.5-30.7,18.9-30.7,37.4
					C449.3,428.7,456.1,435.6,464.6,435.6z"/>
				<path class="st4" d="M459.6,446.5c-5.7,5-9.6,12-10.4,20c-0.1,1.1-0.2,2.2-0.2,3.3l0,0l0,0v0.2l0,0l0,0
					c0,18.8,13.4,34.4,31.1,38v-7.3v-42.8v-19c-0.1,0-0.1,0-0.2,0C472.2,438.9,465.1,441.8,459.6,446.5z"/>
				<path class="st4" d="M361.1,395.4c-3.8,4.6-6,10.5-6,16.9c0,10.8,6.5,20.1,15.7,24.3c3.3,1.5,7,2.4,10.9,2.4c0.2,0,0.5,0,0.7,0
					v-6.7v-46.5V383c-7.5,1.5-14.2,5.3-19.5,10.5C362.3,394,361.7,394.7,361.1,395.4z"/>
				<path class="st4" d="M370.4,455.6c-1.1-0.3-2.3-0.4-3.5-0.4c-8.5,0-15.4,6.8-15.5,15.2c0,0.1,0,0.2,0,0.3c0,0.6,0,1.3,0.1,1.9
					c1.2,17.6,14.1,32,31,35.3v-11.4v-25.8C382.5,463.4,377.3,457.2,370.4,455.6z"/>
				<path class="st4" d="M495,382.9v75V508h30.3v-87.6C525.3,401.9,512.3,386.5,495,382.9z"/>
				<path class="st4" d="M299.8,411.5v34.8l0,0v60.6l0,0c16.7,0,30.3-13.6,30.3-30.3v-95.4l0,0l0,0
					C313.3,381.1,299.8,394.7,299.8,411.5z"/>
			</g>
		</g>
	</g>
</g>
<g id="Layer_2">
	<rect class="st0" width="30.3" height="214.4"/>
	<rect x="247.7" class="st0" width="30.3" height="214.4"/>
	<rect x="442.9" class="st0" width="30.3" height="214.4"/>
	<rect x="495.4" class="st0" width="30.3" height="214.4"/>
</g>
</svg>
