<?xml version="1.0" encoding="utf-8"?>
<!-- Generator: Adobe Illustrator 25.0.0, SVG Export Plug-In . SVG Version: 6.00 Build 0)  -->
<svg version="1.1" id="Layer_1" xmlns="http://www.w3.org/2000/svg" xmlns:xlink="http://www.w3.org/1999/xlink" x="0px" y="0px"
	 viewBox="0 0 3200 1800" style="enable-background:new 0 0 3200 1800;" xml:space="preserve">
<style type="text/css">
	.st0{opacity:0.5;}
	.st1{fill:none;stroke:#494C4F;stroke-miterlimit:10;}
	.st2{fill:#FFFFFF;}
</style>
<g id="Layer_1_1_">
	<g class="st0">
		<g>
			<line class="st1" x1="25" y1="0" x2="25" y2="1800"/>
		</g>
		<g>
			<line class="st1" x1="85" y1="0" x2="85" y2="1800"/>
		</g>
		<g>
			<line class="st1" x1="145" y1="0" x2="145" y2="1800"/>
		</g>
		<g>
			<line class="st1" x1="205" y1="0" x2="205" y2="1800"/>
		</g>
		<g>
			<line class="st1" x1="265" y1="0" x2="265" y2="1800"/>
		</g>
		<g>
			<line class="st1" x1="325" y1="0" x2="325" y2="1800"/>
		</g>
		<g>
			<line class="st1" x1="385" y1="0" x2="385" y2="1800"/>
		</g>
		<g>
			<line class="st1" x1="445" y1="0" x2="445" y2="1800"/>
		</g>
		<g>
			<line class="st1" x1="505" y1="0" x2="505" y2="1800"/>
		</g>
		<g>
			<line class="st1" x1="565" y1="0" x2="565" y2="1800"/>
		</g>
		<g>
			<line class="st1" x1="625" y1="0" x2="625" y2="1800"/>
		</g>
		<g>
			<line class="st1" x1="685" y1="0" x2="685" y2="1800"/>
		</g>
		<g>
			<line class="st1" x1="745" y1="0" x2="745" y2="1800"/>
		</g>
		<g>
			<line class="st1" x1="805" y1="0" x2="805" y2="1800"/>
		</g>
		<g>
			<line class="st1" x1="865" y1="0" x2="865" y2="1800"/>
		</g>
		<g>
			<line class="st1" x1="925" y1="0" x2="925" y2="1800"/>
		</g>
		<g>
			<line class="st1" x1="985" y1="0" x2="985" y2="1800"/>
		</g>
		<g>
			<line class="st1" x1="1045" y1="0" x2="1045" y2="1800"/>
		</g>
		<g>
			<line class="st1" x1="1105" y1="0" x2="1105" y2="1800"/>
		</g>
		<g>
			<line class="st1" x1="1165" y1="0" x2="1165" y2="1800"/>
		</g>
		<g>
			<line class="st1" x1="1225" y1="0" x2="1225" y2="1800"/>
		</g>
		<g>
			<line class="st1" x1="1285" y1="0" x2="1285" y2="1800"/>
		</g>
		<g>
			<line class="st1" x1="1345" y1="0" x2="1345" y2="1800"/>
		</g>
		<g>
			<line class="st1" x1="1405" y1="0" x2="1405" y2="1800"/>
		</g>
		<g>
			<line class="st1" x1="1465" y1="0" x2="1465" y2="1800"/>
		</g>
		<g>
			<line class="st1" x1="1525" y1="0" x2="1525" y2="1800"/>
		</g>
		<g>
			<line class="st1" x1="1585" y1="0" x2="1585" y2="1800"/>
		</g>
		<g>
			<line class="st1" x1="1645" y1="0" x2="1645" y2="1800"/>
		</g>
		<g>
			<line class="st1" x1="1705" y1="0" x2="1705" y2="1800"/>
		</g>
		<g>
			<line class="st1" x1="1765" y1="0" x2="1765" y2="1800"/>
		</g>
		<g>
			<line class="st1" x1="1825" y1="0" x2="1825" y2="1800"/>
		</g>
		<g>
			<line class="st1" x1="1885" y1="0" x2="1885" y2="1800"/>
		</g>
		<g>
			<line class="st1" x1="1945" y1="0" x2="1945" y2="1800"/>
		</g>
		<g>
			<line class="st1" x1="2005" y1="0" x2="2005" y2="1800"/>
		</g>
		<g>
			<line class="st1" x1="2065" y1="0" x2="2065" y2="1800"/>
		</g>
		<g>
			<line class="st1" x1="2125" y1="0" x2="2125" y2="1800"/>
		</g>
		<g>
			<line class="st1" x1="2185" y1="0" x2="2185" y2="1800"/>
		</g>
		<g>
			<line class="st1" x1="2245" y1="0" x2="2245" y2="1800"/>
		</g>
		<g>
			<line class="st1" x1="2305" y1="0" x2="2305" y2="1800"/>
		</g>
		<g>
			<line class="st1" x1="2365" y1="0" x2="2365" y2="1800"/>
		</g>
		<g>
			<line class="st1" x1="2425" y1="0" x2="2425" y2="1800"/>
		</g>
		<g>
			<line class="st1" x1="2485" y1="0" x2="2485" y2="1800"/>
		</g>
		<g>
			<line class="st1" x1="2545" y1="0" x2="2545" y2="1800"/>
		</g>
		<g>
			<line class="st1" x1="2605" y1="0" x2="2605" y2="1800"/>
		</g>
		<g>
			<line class="st1" x1="2665" y1="0" x2="2665" y2="1800"/>
		</g>
		<g>
			<line class="st1" x1="2725" y1="0" x2="2725" y2="1800"/>
		</g>
		<g>
			<line class="st1" x1="2785" y1="0" x2="2785" y2="1800"/>
		</g>
		<g>
			<line class="st1" x1="2845" y1="0" x2="2845" y2="1800"/>
		</g>
		<g>
			<line class="st1" x1="2905" y1="0" x2="2905" y2="1800"/>
		</g>
		<g>
			<line class="st1" x1="2965" y1="0" x2="2965" y2="1800"/>
		</g>
		<g>
			<line class="st1" x1="3025" y1="0" x2="3025" y2="1800"/>
		</g>
		<g>
			<line class="st1" x1="3085" y1="0" x2="3085" y2="1800"/>
		</g>
		<g>
			<line class="st1" x1="3145" y1="0" x2="3145" y2="1800"/>
		</g>
	</g>
</g>
<g id="Layer_2_1_">
	<g class="st0">
		<g>
			<line class="st1" x1="55" y1="0" x2="55" y2="1800"/>
		</g>
		<g>
			<line class="st1" x1="115" y1="0" x2="115" y2="1800"/>
		</g>
		<g>
			<line class="st1" x1="175" y1="0" x2="175" y2="1800"/>
		</g>
		<g>
			<line class="st1" x1="235" y1="0" x2="235" y2="1800"/>
		</g>
		<g>
			<line class="st1" x1="295" y1="0" x2="295" y2="1800"/>
		</g>
		<g>
			<line class="st1" x1="355" y1="0" x2="355" y2="1800"/>
		</g>
		<g>
			<line class="st1" x1="415" y1="0" x2="415" y2="1800"/>
		</g>
		<g>
			<line class="st1" x1="475" y1="0" x2="475" y2="1800"/>
		</g>
		<g>
			<line class="st1" x1="535" y1="0" x2="535" y2="1800"/>
		</g>
		<g>
			<line class="st1" x1="595" y1="0" x2="595" y2="1800"/>
		</g>
		<g>
			<line class="st1" x1="655" y1="0" x2="655" y2="1800"/>
		</g>
		<g>
			<line class="st1" x1="715" y1="0" x2="715" y2="1800"/>
		</g>
		<g>
			<line class="st1" x1="775" y1="0" x2="775" y2="1800"/>
		</g>
		<g>
			<line class="st1" x1="835" y1="0" x2="835" y2="1800"/>
		</g>
		<g>
			<line class="st1" x1="895" y1="0" x2="895" y2="1800"/>
		</g>
		<g>
			<line class="st1" x1="955" y1="0" x2="955" y2="1800"/>
		</g>
		<g>
			<line class="st1" x1="1015" y1="0" x2="1015" y2="1800"/>
		</g>
		<g>
			<line class="st1" x1="1075" y1="0" x2="1075" y2="1800"/>
		</g>
		<g>
			<line class="st1" x1="1135" y1="0" x2="1135" y2="1800"/>
		</g>
		<g>
			<line class="st1" x1="1195" y1="0" x2="1195" y2="1800"/>
		</g>
		<g>
			<line class="st1" x1="1255" y1="0" x2="1255" y2="1800"/>
		</g>
		<g>
			<line class="st1" x1="1315" y1="0" x2="1315" y2="1800"/>
		</g>
		<g>
			<line class="st1" x1="1375" y1="0" x2="1375" y2="1800"/>
		</g>
		<g>
			<line class="st1" x1="1435" y1="0" x2="1435" y2="1800"/>
		</g>
		<g>
			<line class="st1" x1="1495" y1="0" x2="1495" y2="1800"/>
		</g>
		<g>
			<line class="st1" x1="1555" y1="0" x2="1555" y2="1800"/>
		</g>
		<g>
			<line class="st1" x1="1615" y1="0" x2="1615" y2="1800"/>
		</g>
		<g>
			<line class="st1" x1="1675" y1="0" x2="1675" y2="1800"/>
		</g>
		<g>
			<line class="st1" x1="1735" y1="0" x2="1735" y2="1800"/>
		</g>
		<g>
			<line class="st1" x1="1795" y1="0" x2="1795" y2="1800"/>
		</g>
		<g>
			<line class="st1" x1="1855" y1="0" x2="1855" y2="1800"/>
		</g>
		<g>
			<line class="st1" x1="1915" y1="0" x2="1915" y2="1800"/>
		</g>
		<g>
			<line class="st1" x1="1975" y1="0" x2="1975" y2="1800"/>
		</g>
		<g>
			<line class="st1" x1="2035" y1="0" x2="2035" y2="1800"/>
		</g>
		<g>
			<line class="st1" x1="2095" y1="0" x2="2095" y2="1800"/>
		</g>
		<g>
			<line class="st1" x1="2155" y1="0" x2="2155" y2="1800"/>
		</g>
		<g>
			<line class="st1" x1="2215" y1="0" x2="2215" y2="1800"/>
		</g>
		<g>
			<line class="st1" x1="2275" y1="0" x2="2275" y2="1800"/>
		</g>
		<g>
			<line class="st1" x1="2335" y1="0" x2="2335" y2="1800"/>
		</g>
		<g>
			<line class="st1" x1="2395" y1="0" x2="2395" y2="1800"/>
		</g>
		<g>
			<line class="st1" x1="2455" y1="0" x2="2455" y2="1800"/>
		</g>
		<g>
			<line class="st1" x1="2515" y1="0" x2="2515" y2="1800"/>
		</g>
		<g>
			<line class="st1" x1="2575" y1="0" x2="2575" y2="1800"/>
		</g>
		<g>
			<line class="st1" x1="2635" y1="0" x2="2635" y2="1800"/>
		</g>
		<g>
			<line class="st1" x1="2695" y1="0" x2="2695" y2="1800"/>
		</g>
		<g>
			<line class="st1" x1="2755" y1="0" x2="2755" y2="1800"/>
		</g>
		<g>
			<line class="st1" x1="2815" y1="0" x2="2815" y2="1800"/>
		</g>
		<g>
			<line class="st1" x1="2875" y1="0" x2="2875" y2="1800"/>
		</g>
		<g>
			<line class="st1" x1="2935" y1="0" x2="2935" y2="1800"/>
		</g>
		<g>
			<line class="st1" x1="2995" y1="0" x2="2995" y2="1800"/>
		</g>
		<g>
			<line class="st1" x1="3055" y1="0" x2="3055" y2="1800"/>
		</g>
		<g>
			<line class="st1" x1="3115" y1="0" x2="3115" y2="1800"/>
		</g>
		<g>
			<line class="st1" x1="3175" y1="0" x2="3175" y2="1800"/>
		</g>
	</g>
</g>
<g id="Layer_3">
	<g>
		<g>
			<path class="st2" d="M1373.2,1688.7c-131.3-156-260.5-309.3-392.2-465.7c0,154.5,0,305.5,0,455.3c-2.9,1.9-3.7,2.8-4.5,2.9
				c-29.3,2.5-29.3,2.5-29.3-30.5c0-164.1,0-328,0-492.1c0-6.4,0-12.7,0-19.1c1-0.9,2.1-1.8,3.1-2.7
				c129.1,153.2,258.1,306.3,390.4,463.4c0-10.7,0-16.6,0-22.6c0-133.2,0-266.4,0-399.6c0-33.5,0.5-33.9,32.5-27.7
				C1373.2,1328.6,1373.2,1506.8,1373.2,1688.7z"/>
			<path class="st2" d="M398.2,1563.9c8.9-7.9,16.8-15.1,25.8-23.1c20,34.3,44.3,61.7,74.8,82.1c119.9,80.3,275.5,5.9,308.5-147.8
				c29-135.4-37.4-266.3-152.4-295c-77.8-19.4-148.2-0.7-202.5,69.4c-26.1,33.6-36.5,75.6-39.7,122.2c55.5,0,109.5,0,164.4,0
				c0,11.7,0,21.3,0,32.1c-65.1,0-129.9,0-196.4,0c-1.5-45.5,6.1-89,23.1-129.6c35.5-84.8,97.9-124.7,177.9-134
				c127.1-14.7,237.2,77.2,262.1,219c31.3,177.9-90.7,338-250.5,329.8C509.2,1684.7,447.4,1638.4,398.2,1563.9z"/>
			<path class="st2" d="M2642.4,1414c0-153.8,107.4-274.8,243.9-274.7c137.9,0.1,244.3,120.4,244,275.9
				c-0.2,150.7-105.4,274.1-244.2,273.9C2749.6,1688.8,2642.5,1568,2642.4,1414z M2886.3,1173.5c-119.2,0.1-210.5,104.9-210,241.1
				c0.5,136.9,91.6,241.2,210.5,241.1c118.8-0.1,209.8-104.9,209.8-241.8C3096.5,1277.1,3005.9,1173.4,2886.3,1173.5z"/>
			<path class="st2" d="M1838.4,1150.4c-65.6,182-131.1,363.6-197.9,549.1c-65.8-185.3-130.3-366.8-195.8-551.2
				c8.8,0,14.9,0.6,20.9-0.1c10.7-1.4,16.1,3.1,20.2,15c16.6,48.7,34.5,96.7,51.5,145.2c3.7,10.6,8.3,15.1,19,15
				c56.9-0.7,113.7-0.8,170.6,0c11.4,0.1,16.1-4.8,19.9-15.8c15.1-43.7,30.9-87.1,46.5-130.6
				C1804.7,1145,1805.8,1144.4,1838.4,1150.4z M1554.8,1357.2c28.6,82,56.7,162.8,86.4,248c30.1-85,58.6-165.6,87.7-248
				C1670.1,1357.2,1613.6,1357.2,1554.8,1357.2z"/>
			<path class="st2" d="M2254.5,1681c-11.8,0-20.9,0-30.7,0c-0.4-4.7-1.2-8.5-1.2-12.4c0.1-117.4-0.2-234.9,0.4-352.4
				c0.6-121.2,77.7-185.4,176.7-176c75.8,7.3,124.7,55.8,138.6,133.4c2.6,14.7,4.3,30,4.3,44.9c0.3,117.4,0.2,234.9,0.2,352.4
				c0,2.8-0.3,5.7-0.5,9.6c-10.6,0-20.4,0-32.1,0c0-8.6,0-16,0-23.4c-0.4-117.4,0.1-234.9-1.6-352.3
				c-1.2-76.1-47.9-127.3-115.5-130.7c-52.1-2.6-96.4,13.8-123.2,69c-13.5,27.8-14.9,59-15.1,89.9c-0.5,108.7-0.3,217.5-0.4,326.2
				C2254.5,1666,2254.5,1672.9,2254.5,1681z"/>
			<path class="st2" d="M1964.5,1149.1c11.4,0,20.5,0,32.3,0c0,7.3,0,14,0,20.6c0,61,0.4,122.2-0.3,183.2
				c-0.2,16.5,3.6,30.3,10.7,44.2c45.7,89.4,90.8,179.1,136.1,268.8c2,4,3.7,8.1,5.6,12.3c-23.8,9.2-33.6,5.6-44.9-16.8
				c-40.9-81.1-81.6-162.4-123.8-246.3c-4.3,7.8-7.8,13.7-11,19.9c-38.5,75.3-77,150.7-115.4,226c-11.7,22.9-17.9,25.5-46.5,18.2
				c19-36.9,37.6-73.4,56.5-109.7c31.9-61.5,64.2-122.9,95.8-184.6c3.3-6.6,4.6-15.3,4.7-23c0.4-64,0.2-128,0.2-192
				C1964.5,1163.4,1964.5,1157.1,1964.5,1149.1z"/>
		</g>
		<g>
			<path class="st2" d="M1593.7,719.6c-45.9,0-91.2,4.2-135.6-1.1c-47.5-5.7-81.6-37.8-93-92.6c-11.7-56.7-1.1-107.3,40.2-146.1
				c1.9-1.8,3.9-3.5,6.7-6c-3.3-1.6-5.6-2.9-7.9-3.9c-58.8-20.4-91-75.3-84.7-144.5c6.9-76,49.9-127.3,120-133.9
				c50.8-4.8,102.2-0.9,154.2-0.9C1593.7,367.1,1593.7,543.5,1593.7,719.6z M1560.9,223.6c-4.9-0.5-8.8-1.2-12.8-1.1
				c-36.8,0.9-74-0.9-110.4,3.7c-51.1,6.5-83.2,49.7-85,107.4c-1.9,59,22.7,97.3,76.2,107.3c37.6,7,76.4,5.1,114.7,7.1
				c5.8,0.3,11.7,0,17.4,0C1560.9,371.7,1560.9,298,1560.9,223.6z M1560.9,686.9c0-67.6,0-135.4,0-204.3c-28.6,0-56.1-1-83.6,0.2
				c-43.8,1.9-73.8,30.6-81.1,79.1c-9.2,61.8,16.3,119,75.9,124.6C1500.9,689.1,1530.2,686.9,1560.9,686.9z"/>
			<path class="st2" d="M2059.8,190.1c-65.9,182.9-131.4,364.5-198.3,550.2c-66-185.6-130.4-367-195.8-550.9
				c9.5,0,16.6,0.7,23.6-0.1c9.2-1.1,13.3,3.5,16.6,12.9c17.1,49.1,35,97.8,52.2,146.8c3.6,10.3,7.6,15.5,18.6,15.3
				c57.4-0.8,114.8-0.6,172.2-0.1c9.6,0.1,14.3-2.9,18-13.6c15.9-46.5,33.5-92.2,49.1-138.9c5.7-17,13-26.2,29.7-22.6
				C2049.7,190.1,2053.8,189.8,2059.8,190.1z M1949.7,398.7c-59.4,0-115.9,0-173.7,0c28.8,82.3,56.8,162.5,86.3,247.1
				C1892.5,560.4,1920.8,480.3,1949.7,398.7z"/>
			<path class="st2" d="M69.2,191.7c1.5-1.1,1.8-1.6,2.2-1.7c31.7-3.7,31.7-3.7,43.4,29.2c15.5,43.6,31.3,86.9,46.4,130.6
				c3.4,10,7.4,14.5,17.6,14.4c57.9-0.6,115.8-0.7,173.7,0c10.3,0.1,14.2-4.9,17.5-14.4c16.2-46.3,33.4-92.2,49.1-138.8
				c5.4-16,11.7-25.9,28.2-21.9c3.9,0.9,8.1,0.1,15.5,0.1c-66.4,184.1-131.9,366-198.6,550.9C198.4,555.5,133.8,373.5,69.2,191.7z
				 M264.8,645.7c29.9-84.2,58.5-165,87.6-247.1c-58.7,0-115.4,0-173.7,0C207.4,481.1,235.5,561.6,264.8,645.7z"/>
			<path class="st2" d="M998.1,498c0-12.5,0-22,0-33.8c31.9,0,63,0,94.1,0c30.7,0,61.3,0,93.2,0c0-80.9,0-160.2,0-241.4
				c-63.6,0-126.9,0-191.5,0c0-11.3,0-20.9,0-32c74.2,0,148.7,0,224.3,0c0,176.2,0,353.1,0,531c-3.2,0.3-6.2,1-9.1,1
				c-67.6,0.1-135.3,0.1-202.9,0c-14.8,0-15.6-2.4-12-33.6c63.4,0,127.2,0,191.7,0c0-64.6,0-127.1,0-191.3
				C1123.2,498,1061.4,498,998.1,498z"/>
			<path class="st2" d="M2392.4,295.9c-9.1,4.9-17.6,9.5-22.8,12.3c-16.5-23.9-28.9-49-47-66.5c-33-31.9-73-35.6-112.9-18.7
				c-39.5,16.7-63.4,49.9-68.9,98.3c-4.7,41.2,9.2,73.6,40.4,94.2c29.5,19.5,60.7,35.7,91,53.8c14.9,8.8,30.2,17.2,44.2,27.8
				c45.3,34,55,78.3,45.6,131.4c-9.4,53.6-46.7,92-91.9,99.3c-61.8,10-114-17.5-139.7-74.8c6.8-6.7,13.8-13.7,21.9-21.7
				c3.9,6.1,6.9,10.7,9.7,15.3c24.8,40.5,65.7,58.2,107.6,46.3c33.2-9.4,52.9-34.4,59.7-71.6c7.1-38.6-0.6-72.6-31.6-94.2
				c-24.8-17.2-51.3-31.2-77.1-46.6c-19-11.3-38.2-22.2-56.8-34.4c-82.5-53.7-66.7-166.2-15.8-219.9c63-66.5,189.2-72.6,240.7,57.4
				C2390.1,286.8,2390.9,290.8,2392.4,295.9z"/>
			<path class="st2" d="M860.5,222.6c-44.1,0-86.4,0-129.5,0c0-11.5,0-21.1,0-32c53.6,0,107,0,161.4,0c0,176.8,0,353.3,0,529.8
				c-0.9,0.7-1.7,1.8-2.6,1.9c-29.3,2.9-29.3,2.9-29.3-30.6c0-148.9,0-297.8,0-446.7C860.5,238.1,860.5,231.3,860.5,222.6z"/>
			<path class="st2" d="M625.6,720.9c0-165.9,0-331,0-497.8c-43.1,0-85.4,0-128.9,0c0-11.8,0-21.8,0-32.8c53.5,0,106.6,0,162,0
				c0,7.1,0,14,0,20.6c0,160.4,0,321,0,481.4C658.7,726.5,658.7,726.5,625.6,720.9z"/>
			<path class="st2" d="M2524.1,190.7c0,177.6,0,353.6,0,531c-10.3,0-19.7,0-30.3,0c0-176.7,0-353.1,0-531
				C2503.3,190.7,2513.1,190.7,2524.1,190.7z"/>
		</g>
	</g>
</g>
</svg>
