<?xml version="1.0" encoding="utf-8"?>
<!-- Generator: Adobe Illustrator 25.0.0, SVG Export Plug-In . SVG Version: 6.00 Build 0)  -->
<svg version="1.1" xmlns="http://www.w3.org/2000/svg" xmlns:xlink="http://www.w3.org/1999/xlink" x="0px" y="0px"
	 viewBox="0 0 3200 1800" style="enable-background:new 0 0 3200 1800;" xml:space="preserve">
<style type="text/css">
	.st0{opacity:0.5;}
	.st1{fill:none;stroke:#343A40;stroke-miterlimit:10;}
	.st2{fill:#FFFFFF;}
</style>
<g id="Layer_1">
	<g class="st0">
		<g>
			<line class="st1" x1="25" y1="0" x2="25" y2="1800"/>
		</g>
		<g>
			<line class="st1" x1="85" y1="0" x2="85" y2="1800"/>
		</g>
		<g>
			<line class="st1" x1="145" y1="0" x2="145" y2="1800"/>
		</g>
		<g>
			<line class="st1" x1="205" y1="0" x2="205" y2="1800"/>
		</g>
		<g>
			<line class="st1" x1="265" y1="0" x2="265" y2="1800"/>
		</g>
		<g>
			<line class="st1" x1="325" y1="0" x2="325" y2="1800"/>
		</g>
		<g>
			<line class="st1" x1="385" y1="0" x2="385" y2="1800"/>
		</g>
		<g>
			<line class="st1" x1="445" y1="0" x2="445" y2="1800"/>
		</g>
		<g>
			<line class="st1" x1="505" y1="0" x2="505" y2="1800"/>
		</g>
		<g>
			<line class="st1" x1="565" y1="0" x2="565" y2="1800"/>
		</g>
		<g>
			<line class="st1" x1="625" y1="0" x2="625" y2="1800"/>
		</g>
		<g>
			<line class="st1" x1="685" y1="0" x2="685" y2="1800"/>
		</g>
		<g>
			<line class="st1" x1="745" y1="0" x2="745" y2="1800"/>
		</g>
		<g>
			<line class="st1" x1="805" y1="0" x2="805" y2="1800"/>
		</g>
		<g>
			<line class="st1" x1="865" y1="0" x2="865" y2="1800"/>
		</g>
		<g>
			<line class="st1" x1="925" y1="0" x2="925" y2="1800"/>
		</g>
		<g>
			<line class="st1" x1="985" y1="0" x2="985" y2="1800"/>
		</g>
		<g>
			<line class="st1" x1="1045" y1="0" x2="1045" y2="1800"/>
		</g>
		<g>
			<line class="st1" x1="1105" y1="0" x2="1105" y2="1800"/>
		</g>
		<g>
			<line class="st1" x1="1165" y1="0" x2="1165" y2="1800"/>
		</g>
		<g>
			<line class="st1" x1="1225" y1="0" x2="1225" y2="1800"/>
		</g>
		<g>
			<line class="st1" x1="1285" y1="0" x2="1285" y2="1800"/>
		</g>
		<g>
			<line class="st1" x1="1345" y1="0" x2="1345" y2="1800"/>
		</g>
		<g>
			<line class="st1" x1="1405" y1="0" x2="1405" y2="1800"/>
		</g>
		<g>
			<line class="st1" x1="1465" y1="0" x2="1465" y2="1800"/>
		</g>
		<g>
			<line class="st1" x1="1525" y1="0" x2="1525" y2="1800"/>
		</g>
		<g>
			<line class="st1" x1="1585" y1="0" x2="1585" y2="1800"/>
		</g>
		<g>
			<line class="st1" x1="1645" y1="0" x2="1645" y2="1800"/>
		</g>
		<g>
			<line class="st1" x1="1705" y1="0" x2="1705" y2="1800"/>
		</g>
		<g>
			<line class="st1" x1="1765" y1="0" x2="1765" y2="1800"/>
		</g>
		<g>
			<line class="st1" x1="1825" y1="0" x2="1825" y2="1800"/>
		</g>
		<g>
			<line class="st1" x1="1885" y1="0" x2="1885" y2="1800"/>
		</g>
		<g>
			<line class="st1" x1="1945" y1="0" x2="1945" y2="1800"/>
		</g>
		<g>
			<line class="st1" x1="2005" y1="0" x2="2005" y2="1800"/>
		</g>
		<g>
			<line class="st1" x1="2065" y1="0" x2="2065" y2="1800"/>
		</g>
		<g>
			<line class="st1" x1="2125" y1="0" x2="2125" y2="1800"/>
		</g>
		<g>
			<line class="st1" x1="2185" y1="0" x2="2185" y2="1800"/>
		</g>
		<g>
			<line class="st1" x1="2245" y1="0" x2="2245" y2="1800"/>
		</g>
		<g>
			<line class="st1" x1="2305" y1="0" x2="2305" y2="1800"/>
		</g>
		<g>
			<line class="st1" x1="2365" y1="0" x2="2365" y2="1800"/>
		</g>
		<g>
			<line class="st1" x1="2425" y1="0" x2="2425" y2="1800"/>
		</g>
		<g>
			<line class="st1" x1="2485" y1="0" x2="2485" y2="1800"/>
		</g>
		<g>
			<line class="st1" x1="2545" y1="0" x2="2545" y2="1800"/>
		</g>
		<g>
			<line class="st1" x1="2605" y1="0" x2="2605" y2="1800"/>
		</g>
		<g>
			<line class="st1" x1="2665" y1="0" x2="2665" y2="1800"/>
		</g>
		<g>
			<line class="st1" x1="2725" y1="0" x2="2725" y2="1800"/>
		</g>
		<g>
			<line class="st1" x1="2785" y1="0" x2="2785" y2="1800"/>
		</g>
		<g>
			<line class="st1" x1="2845" y1="0" x2="2845" y2="1800"/>
		</g>
		<g>
			<line class="st1" x1="2905" y1="0" x2="2905" y2="1800"/>
		</g>
		<g>
			<line class="st1" x1="2965" y1="0" x2="2965" y2="1800"/>
		</g>
		<g>
			<line class="st1" x1="3025" y1="0" x2="3025" y2="1800"/>
		</g>
		<g>
			<line class="st1" x1="3085" y1="0" x2="3085" y2="1800"/>
		</g>
		<g>
			<line class="st1" x1="3145" y1="0" x2="3145" y2="1800"/>
		</g>
	</g>
</g>
<g id="Layer_2">
	<g class="st0">
		<g>
			<line class="st1" x1="55" y1="0" x2="55" y2="1800"/>
		</g>
		<g>
			<line class="st1" x1="115" y1="0" x2="115" y2="1800"/>
		</g>
		<g>
			<line class="st1" x1="175" y1="0" x2="175" y2="1800"/>
		</g>
		<g>
			<line class="st1" x1="235" y1="0" x2="235" y2="1800"/>
		</g>
		<g>
			<line class="st1" x1="295" y1="0" x2="295" y2="1800"/>
		</g>
		<g>
			<line class="st1" x1="355" y1="0" x2="355" y2="1800"/>
		</g>
		<g>
			<line class="st1" x1="415" y1="0" x2="415" y2="1800"/>
		</g>
		<g>
			<line class="st1" x1="475" y1="0" x2="475" y2="1800"/>
		</g>
		<g>
			<line class="st1" x1="535" y1="0" x2="535" y2="1800"/>
		</g>
		<g>
			<line class="st1" x1="595" y1="0" x2="595" y2="1800"/>
		</g>
		<g>
			<line class="st1" x1="655" y1="0" x2="655" y2="1800"/>
		</g>
		<g>
			<line class="st1" x1="715" y1="0" x2="715" y2="1800"/>
		</g>
		<g>
			<line class="st1" x1="775" y1="0" x2="775" y2="1800"/>
		</g>
		<g>
			<line class="st1" x1="835" y1="0" x2="835" y2="1800"/>
		</g>
		<g>
			<line class="st1" x1="895" y1="0" x2="895" y2="1800"/>
		</g>
		<g>
			<line class="st1" x1="955" y1="0" x2="955" y2="1800"/>
		</g>
		<g>
			<line class="st1" x1="1015" y1="0" x2="1015" y2="1800"/>
		</g>
		<g>
			<line class="st1" x1="1075" y1="0" x2="1075" y2="1800"/>
		</g>
		<g>
			<line class="st1" x1="1135" y1="0" x2="1135" y2="1800"/>
		</g>
		<g>
			<line class="st1" x1="1195" y1="0" x2="1195" y2="1800"/>
		</g>
		<g>
			<line class="st1" x1="1255" y1="0" x2="1255" y2="1800"/>
		</g>
		<g>
			<line class="st1" x1="1315" y1="0" x2="1315" y2="1800"/>
		</g>
		<g>
			<line class="st1" x1="1375" y1="0" x2="1375" y2="1800"/>
		</g>
		<g>
			<line class="st1" x1="1435" y1="0" x2="1435" y2="1800"/>
		</g>
		<g>
			<line class="st1" x1="1495" y1="0" x2="1495" y2="1800"/>
		</g>
		<g>
			<line class="st1" x1="1555" y1="0" x2="1555" y2="1800"/>
		</g>
		<g>
			<line class="st1" x1="1615" y1="0" x2="1615" y2="1800"/>
		</g>
		<g>
			<line class="st1" x1="1675" y1="0" x2="1675" y2="1800"/>
		</g>
		<g>
			<line class="st1" x1="1735" y1="0" x2="1735" y2="1800"/>
		</g>
		<g>
			<line class="st1" x1="1795" y1="0" x2="1795" y2="1800"/>
		</g>
		<g>
			<line class="st1" x1="1855" y1="0" x2="1855" y2="1800"/>
		</g>
		<g>
			<line class="st1" x1="1915" y1="0" x2="1915" y2="1800"/>
		</g>
		<g>
			<line class="st1" x1="1975" y1="0" x2="1975" y2="1800"/>
		</g>
		<g>
			<line class="st1" x1="2035" y1="0" x2="2035" y2="1800"/>
		</g>
		<g>
			<line class="st1" x1="2095" y1="0" x2="2095" y2="1800"/>
		</g>
		<g>
			<line class="st1" x1="2155" y1="0" x2="2155" y2="1800"/>
		</g>
		<g>
			<line class="st1" x1="2215" y1="0" x2="2215" y2="1800"/>
		</g>
		<g>
			<line class="st1" x1="2275" y1="0" x2="2275" y2="1800"/>
		</g>
		<g>
			<line class="st1" x1="2335" y1="0" x2="2335" y2="1800"/>
		</g>
		<g>
			<line class="st1" x1="2395" y1="0" x2="2395" y2="1800"/>
		</g>
		<g>
			<line class="st1" x1="2455" y1="0" x2="2455" y2="1800"/>
		</g>
		<g>
			<line class="st1" x1="2515" y1="0" x2="2515" y2="1800"/>
		</g>
		<g>
			<line class="st1" x1="2575" y1="0" x2="2575" y2="1800"/>
		</g>
		<g>
			<line class="st1" x1="2635" y1="0" x2="2635" y2="1800"/>
		</g>
		<g>
			<line class="st1" x1="2695" y1="0" x2="2695" y2="1800"/>
		</g>
		<g>
			<line class="st1" x1="2755" y1="0" x2="2755" y2="1800"/>
		</g>
		<g>
			<line class="st1" x1="2815" y1="0" x2="2815" y2="1800"/>
		</g>
		<g>
			<line class="st1" x1="2875" y1="0" x2="2875" y2="1800"/>
		</g>
		<g>
			<line class="st1" x1="2935" y1="0" x2="2935" y2="1800"/>
		</g>
		<g>
			<line class="st1" x1="2995" y1="0" x2="2995" y2="1800"/>
		</g>
		<g>
			<line class="st1" x1="3055" y1="0" x2="3055" y2="1800"/>
		</g>
		<g>
			<line class="st1" x1="3115" y1="0" x2="3115" y2="1800"/>
		</g>
		<g>
			<line class="st1" x1="3175" y1="0" x2="3175" y2="1800"/>
		</g>
	</g>
</g>
<g id="Layer_3">
	<g>
		<path class="st2" d="M2137.6,1106.8c131.3,137.5,260.5,272.6,392.2,410.5c0-136.2,0-269.3,0-401.3c2.9-1.7,3.7-2.5,4.5-2.6
			c29.3-2.2,29.3-2.2,29.3,26.9c0,144.6,0,289.1,0,433.7c0,5.6,0,11.2,0,16.8c-1,0.8-2.1,1.6-3.1,2.4
			c-129.1-135-258.1-270-390.4-408.4c0,9.4,0,14.6,0,19.9c0,117.4,0,234.8,0,352.2c0,29.5-0.5,29.9-32.5,24.4
			C2137.6,1424.2,2137.6,1267.1,2137.6,1106.8z"/>
		<path class="st2" d="M999.6,271.9c45.9,0,91.2-3.7,135.6,1c47.5,5,81.6,33.3,93,81.6c11.7,50,1.1,94.6-40.2,128.8
			c-1.9,1.6-3.9,3.1-6.7,5.3c3.3,1.4,5.6,2.6,7.9,3.4c58.8,18,91,66.4,84.7,127.4c-6.9,67-49.9,112.2-120,118
			c-50.8,4.2-102.2,0.8-154.2,0.8C999.6,582.6,999.6,427.1,999.6,271.9z M1032.4,709.1c4.9,0.4,8.8,1.1,12.8,1
			c36.8-0.8,74,0.8,110.4-3.3c51.1-5.7,83.2-43.8,85-94.7c1.9-52-22.7-85.8-76.2-94.6c-37.6-6.2-76.4-4.5-114.7-6.3
			c-5.8-0.3-11.7,0-17.4,0C1032.4,578.6,1032.4,643.5,1032.4,709.1z M1032.4,300.7c0,59.6,0,119.3,0,180.1c28.6,0,56.1,0.9,83.6-0.2
			c43.8-1.7,73.8-27,81.1-69.7c9.2-54.5-16.3-104.9-75.9-109.8C1092.4,298.8,1063.1,300.7,1032.4,300.7z"/>
		<path class="st2" d="M3112.6,1216.8c-8.9,7-16.8,13.3-25.8,20.4c-20-30.2-44.3-54.4-74.8-72.4c-119.9-70.8-275.5-5.2-308.5,130.3
			c-29,119.3,37.4,234.7,152.4,260c77.8,17.1,148.2,0.6,202.5-61.2c26.1-29.6,36.5-66.6,39.7-107.7c-55.5,0-109.5,0-164.4,0
			c0-10.3,0-18.8,0-28.3c65.1,0,129.9,0,196.4,0c1.5,40.1-6.1,78.4-23.1,114.2c-35.5,74.7-97.9,109.9-177.9,118.1
			c-127.1,13-237.2-68-262.1-193c-31.3-156.8,90.7-297.9,250.5-290.7C3001.6,1110.3,3063.4,1151.1,3112.6,1216.8z"/>
		<path class="st2" d="M868.4,1348.9c0,135.6-107.4,242.2-243.9,242.1c-137.9-0.1-244.3-106.1-244-243.2
			c0.2-132.8,105.4-241.6,244.2-241.4C761.2,1106.7,868.3,1213.2,868.4,1348.9z M624.5,1560.9c119.2-0.1,210.5-92.5,210-212.5
			c-0.5-120.7-91.6-212.6-210.5-212.5c-118.8,0.1-209.8,92.5-209.8,213.1C414.3,1469.6,504.9,1561,624.5,1560.9z"/>
		<path class="st2" d="M533.5,738.6c65.9-161.2,131.4-321.3,198.3-484.9c66,163.6,130.4,323.5,195.8,485.6c-9.5,0-16.6-0.6-23.6,0.1
			c-9.2,1-13.3-3.1-16.6-11.4c-17.1-43.3-35-86.2-52.2-129.4c-3.6-9.1-7.6-13.7-18.6-13.5c-57.4,0.7-114.8,0.5-172.2,0.1
			c-9.6-0.1-14.3,2.6-18,12c-15.9,41-33.5,81.3-49.1,122.4c-5.7,15-13,23.1-29.7,19.9C543.6,738.6,539.5,738.9,533.5,738.6z
			 M643.6,554.8c59.4,0,115.9,0,173.7,0C788.5,482.3,760.5,411.6,731,337C700.8,412.2,672.5,482.8,643.6,554.8z"/>
		<path class="st2" d="M1672.4,1581.2c65.6-160.4,131.1-320.5,197.9-484c65.8,163.3,130.3,323.3,195.8,485.8
			c-8.8,0-14.9-0.5-20.9,0.1c-10.7,1.2-16.1-2.7-20.2-13.2c-16.6-42.9-34.5-85.2-51.5-128c-3.7-9.3-8.3-13.3-19-13.2
			c-56.9,0.6-113.7,0.7-170.6,0c-11.4-0.1-16.1,4.2-19.9,13.9c-15.1,38.5-30.9,76.8-46.5,115.1
			C1706.1,1586,1705,1586.5,1672.4,1581.2z M1956,1399c-28.6-72.3-56.7-143.5-86.4-218.6c-30.1,74.9-58.6,146-87.7,218.6
			C1840.7,1399,1897.2,1399,1956,1399z"/>
		<path class="st2" d="M2524.1,737.2c-1.5,1-1.8,1.4-2.2,1.5c-31.7,3.3-31.7,3.3-43.4-25.7c-15.5-38.4-31.3-76.6-46.4-115.1
			c-3.4-8.8-7.4-12.8-17.6-12.7c-57.9,0.5-115.8,0.6-173.7,0c-10.3-0.1-14.2,4.3-17.5,12.7c-16.2,40.8-33.4,81.3-49.1,122.3
			c-5.4,14.1-11.7,22.8-28.2,19.3c-3.9-0.8-8.1-0.1-15.5-0.1c66.4-162.3,131.9-322.6,198.6-485.6
			C2394.9,416.6,2459.5,577,2524.1,737.2z M2328.5,337.1c-29.9,74.2-58.5,145.4-87.6,217.8c58.7,0,115.4,0,173.7,0
			C2385.9,482.1,2357.8,411.2,2328.5,337.1z"/>
		<path class="st2" d="M1256.3,1113.6c11.8,0,20.9,0,30.7,0c0.4,4.1,1.2,7.5,1.2,10.9c-0.1,103.5,0.2,207-0.4,310.6
			c-0.6,106.8-77.7,163.4-176.7,155.1c-75.8-6.4-124.7-49.2-138.6-117.6c-2.6-13-4.3-26.4-4.3-39.6c-0.3-103.5-0.2-207-0.2-310.6
			c0-2.5,0.3-5,0.5-8.5c10.6,0,20.4,0,32.1,0c0,7.6,0,14.1,0,20.6c0.4,103.5-0.1,207,1.6,310.5c1.2,67.1,47.9,112.2,115.5,115.2
			c52.1,2.3,96.4-12.2,123.2-60.8c13.5-24.5,14.9-52,15.1-79.2c0.5-95.8,0.3-191.7,0.4-287.5
			C1256.3,1126.8,1256.3,1120.7,1256.3,1113.6z"/>
		<path class="st2" d="M1595.2,467.2c0,11,0,19.4,0,29.8c-31.9,0-63,0-94.1,0c-30.7,0-61.3,0-93.2,0c0,71.3,0,141.2,0,212.8
			c63.6,0,126.9,0,191.5,0c0,10,0,18.4,0,28.2c-74.2,0-148.7,0-224.3,0c0-155.3,0-311.2,0-468c3.2-0.3,6.2-0.9,9.1-0.9
			c67.6-0.1,135.3-0.1,202.9,0c14.8,0,15.6,2.1,12,29.6c-63.4,0-127.2,0-191.7,0c0,56.9,0,112,0,168.6
			C1470.1,467.2,1531.9,467.2,1595.2,467.2z"/>
		<path class="st2" d="M200.9,645.4c9.1-4.3,17.6-8.4,22.8-10.8c16.5,21.1,28.9,43.2,47,58.6c33,28.1,73,31.4,112.9,16.5
			c39.5-14.7,63.4-44,68.9-86.6c4.7-36.3-9.2-64.9-40.4-83c-29.5-17.2-60.7-31.5-91-47.4c-14.9-7.8-30.2-15.2-44.2-24.5
			c-45.3-30-55-69-45.6-115.8c9.4-47.2,46.7-81.1,91.9-87.5c61.8-8.8,114,15.4,139.7,65.9c-6.8,5.9-13.8,12.1-21.9,19.1
			c-3.9-5.4-6.9-9.4-9.7-13.5c-24.8-35.7-65.7-51.3-107.6-40.8c-33.2,8.3-52.9,30.3-59.7,63.1c-7.1,34,0.6,64,31.6,83
			c24.8,15.2,51.3,27.5,77.1,41.1c19,10,38.2,19.6,56.8,30.3c82.5,47.3,66.7,146.5,15.8,193.8c-63,58.6-189.2,64-240.7-50.6
			C203.2,653.4,202.4,649.9,200.9,645.4z"/>
		<path class="st2" d="M1546.3,1582.4c-11.4,0-20.5,0-32.3,0c0-6.4,0-12.3,0-18.2c0-53.8-0.4-107.7,0.3-161.5
			c0.2-14.5-3.6-26.7-10.7-39c-45.7-78.8-90.8-157.9-136.1-236.9c-2-3.5-3.7-7.1-5.6-10.8c23.8-8.1,33.6-4.9,44.9,14.8
			c40.9,71.5,81.6,143.1,123.8,217.1c4.3-6.9,7.8-12.1,11-17.5c38.5-66.4,77-132.8,115.4-199.2c11.7-20.2,17.9-22.5,46.5-16
			c-19,32.5-37.6,64.7-56.5,96.7c-31.9,54.2-64.2,108.3-95.8,162.7c-3.3,5.8-4.6,13.5-4.7,20.3c-0.4,56.4-0.2,112.8-0.2,169.2
			C1546.3,1569.8,1546.3,1575.3,1546.3,1582.4z"/>
		<path class="st2" d="M1732.8,710c44.1,0,86.4,0,129.5,0c0,10.1,0,18.6,0,28.2c-53.6,0-107,0-161.4,0c0-155.8,0-311.4,0-467
			c0.9-0.6,1.7-1.6,2.6-1.7c29.3-2.6,29.3-2.6,29.3,27c0,131.2,0,262.5,0,393.7C1732.8,696.3,1732.8,702.3,1732.8,710z"/>
		<path class="st2" d="M1967.7,270.8c0,146.2,0,291.7,0,438.8c43.1,0,85.4,0,128.9,0c0,10.4,0,19.2,0,28.9c-53.5,0-106.6,0-162,0
			c0-6.3,0-12.3,0-18.2c0-141.4,0-282.9,0-424.3C1934.6,265.8,1934.6,265.8,1967.7,270.8z"/>
		<path class="st2" d="M69.2,738.1c0-156.5,0-311.7,0-468c10.3,0,19.7,0,30.3,0c0,155.7,0,311.2,0,468
			C90,738.1,80.2,738.1,69.2,738.1z"/>
	</g>
</g>
</svg>
